<?xml version="1.0" encoding="UTF-8"?>
<svg xmlns="http://www.w3.org/2000/svg" viewBox="0 0 411.25 411.25">
  <defs>
    <style>
      .uuid-f8afd85d-ebc3-4415-a1ea-ad1636dad25e {
        opacity: .04;
      }

      .uuid-6ad503d4-b9f7-4fd1-a2a3-d268cb70df82 {
        fill: #dc2d23;
      }

      .uuid-6ad503d4-b9f7-4fd1-a2a3-d268cb70df82, .uuid-c6d6cc43-318d-4cf1-a1f6-ab595416e60e, .uuid-b7dd0140-df58-4c19-97f0-4ffe1cae90aa, .uuid-14853dc4-03fe-47ab-a5e6-bb28f9af44ab, .uuid-35cd12db-732a-4d50-bb70-fd884e3b7fa6, .uuid-4d1fe6f7-75e0-4048-ad56-bbeaf1221735, .uuid-b26cec35-62ff-441c-8511-a08380c8db3c, .uuid-214cce5b-e1e2-4824-b7e1-1e9f9a86517f, .uuid-2eb115b0-5425-45cb-b028-7f836e3bdf51, .uuid-afb82781-a27b-4be2-a4f7-fc4cdf90872e {
        stroke-width: 0px;
      }

      .uuid-6ad503d4-b9f7-4fd1-a2a3-d268cb70df82, .uuid-c6d6cc43-318d-4cf1-a1f6-ab595416e60e, .uuid-b7dd0140-df58-4c19-97f0-4ffe1cae90aa, .uuid-35cd12db-732a-4d50-bb70-fd884e3b7fa6, .uuid-b26cec35-62ff-441c-8511-a08380c8db3c, .uuid-afb82781-a27b-4be2-a4f7-fc4cdf90872e {
        fill-rule: evenodd;
      }

      .uuid-0a15256f-0bd0-4960-aab9-6b80731cab5c {
        opacity: .08;
      }

      .uuid-c6d6cc43-318d-4cf1-a1f6-ab595416e60e {
        fill: #363736;
      }

      .uuid-d31698cc-aab4-46a9-a537-fbf4596823ba {
        opacity: .03;
      }

      .uuid-010da537-8da2-4b63-94f8-9865c9e8ee16 {
        opacity: .01;
      }

      .uuid-35cd12db-732a-4d50-bb70-fd884e3b7fa6 {
        fill: #64af31;
      }

      .uuid-b7c6823b-1ce0-4919-9f73-94073d932b6a {
        opacity: .06;
      }

      .uuid-4d1fe6f7-75e0-4048-ad56-bbeaf1221735, .uuid-b26cec35-62ff-441c-8511-a08380c8db3c {
        fill: #fff;
      }

      .uuid-311c67f0-b78a-4e2a-a25f-488127df1b7a {
        opacity: .02;
      }

      .uuid-214cce5b-e1e2-4824-b7e1-1e9f9a86517f {
        fill: #f9f9f8;
      }

      .uuid-b2f003ca-416f-4f34-a483-951fdd8427e6 {
        opacity: .1;
      }

      .uuid-ab2d184c-eb47-4c30-b40b-33dcbd793a77 {
        opacity: .05;
      }

      .uuid-2eb115b0-5425-45cb-b028-7f836e3bdf51 {
        fill: #e9e8e9;
      }

      .uuid-afb82781-a27b-4be2-a4f7-fc4cdf90872e {
        fill: #ececed;
      }

      .uuid-15b75822-c87a-4fef-baf5-bfb5cf5c9dd5 {
        opacity: .12;
      }
    </style>
  </defs>
  <g id="uuid-3b33c455-dae3-4df7-9e43-208713fc43fd" data-name="Ãðóïïà 2">
    <g id="uuid-30d69583-7e6c-4371-ac04-61911d0909fe" data-name="Ôèãóðà 17">
      <path class="uuid-c6d6cc43-318d-4cf1-a1f6-ab595416e60e" d="m205.63.63C92.41.63.63,92.41.63,205.63s91.78,205,205,205,205-91.78,205-205S318.84.63,205.63.63Zm0,330c-69.04,0-125-55.96-125-125s55.96-125,125-125,125,55.96,125,125-55.96,125-125,125Z"/>
    </g>
    <g id="uuid-bd3e0d10-1155-4f21-8559-09089ca4edc9" data-name="Ôèãóðà 17 (êîïèÿ) 2">
      <path class="uuid-6ad503d4-b9f7-4fd1-a2a3-d268cb70df82" d="m175.05,84.41L155.48,6.83c-11.19,2.82-22.01,6.54-32.39,11.1l32.21,73.25c6.32-2.79,12.93-5.05,19.75-6.77Zm20.26-3.36L188.71,1.32s-.02,0-.03,0l6.61,79.73s.01,0,.02,0Zm-58.04,19.92l-43.75-66.98c-9.5,6.22-18.46,13.19-26.77,20.86l54.2,58.84c5.07-4.67,10.53-8.93,16.32-12.72Zm-49.9,64.1l-75.68-25.96c-3.63,10.6-6.44,21.59-8.3,32.89l78.92,13.12c1.14-6.89,2.85-13.59,5.06-20.06ZM222.5,1.32s-.09,0-.14-.01l-6.53,79.73s.06,0,.09,0L222.5,1.32Zm-115.46,127.46l-63.09-49.18c-7.02,8.99-13.3,18.58-18.77,28.69l70.42,37.99c3.33-6.16,7.16-12.01,11.44-17.49ZM288.15,17.94c-10.39-4.58-21.24-8.31-32.44-11.13l-19.54,77.59c6.83,1.72,13.45,3.99,19.78,6.79l32.21-73.25Zm40.79,167.17l78.92-13.13c-1.87-11.31-4.67-22.31-8.31-32.91l-75.68,25.98c2.22,6.47,3.93,13.17,5.06,20.07Zm-13.31-38.86l70.41-38c-5.46-10.09-11.76-19.66-18.78-28.65l-63.08,49.18c4.28,5.48,8.12,11.31,11.45,17.47Zm-25.35-32.56l54.18-58.84c-8.31-7.66-17.26-14.63-26.75-20.85l-43.75,66.98c5.79,3.79,11.24,8.04,16.31,12.71Zm120.34,91.83l-80,.04s0,.04,0,.07c0,7.03-.59,13.91-1.7,20.62l78.91,13.2c1.83-11,2.79-22.29,2.79-33.81,0-.04,0-.07,0-.11Zm-154.82,114.62l32.11,73.29c10.44-4.58,20.42-10.01,29.87-16.2l-43.78-66.98c-5.76,3.77-11.84,7.1-18.21,9.89Zm34.4-22.49l54.14,58.91c8.36-7.69,16.07-16.07,23.06-25.04l-63.14-49.13c-4.26,5.47-8.96,10.58-14.06,15.27Zm-74.31,32.56l6.57,79.73c11.5-.93,22.74-2.82,33.63-5.58l-19.69-77.55c-6.64,1.68-13.49,2.83-20.51,3.4Zm99.63-64.98l70.34,38.15c5.42-9.96,10.01-20.43,13.73-31.31l-75.7-25.93c-2.27,6.63-5.07,13.01-8.38,19.09Zm-208.55,17.12l-63.15,49.11c6.98,8.96,14.68,17.34,23.03,25.02l54.17-58.88c-5.09-4.68-9.78-9.79-14.04-15.25Zm-19.6-36.2l-75.69,25.94c3.72,10.84,8.3,21.29,13.69,31.23l70.35-38.13c-3.29-6.06-6.09-12.43-8.35-19.04Zm-6.74-40.53s0-.03,0-.05l-80-.03s0,.06,0,.08c0,11.53.97,22.83,2.8,33.84l78.91-13.2c-1.12-6.71-1.71-13.6-1.71-20.63Zm56.56,104.59l-43.81,66.96c9.46,6.2,19.46,11.64,29.91,16.24l32.13-73.28c-6.38-2.8-12.46-6.13-18.23-9.91Zm17.93,94.13c10.9,2.76,22.16,4.65,33.68,5.59l6.57-79.73c-7.03-.57-13.89-1.72-20.54-3.41l-19.71,77.55Z"/>
    </g>
    <g id="uuid-25bfcfef-ba95-4fe4-a130-11141883411d" data-name="Ôèãóðà 17 (êîïèÿ) 3">
      <path class="uuid-35cd12db-732a-4d50-bb70-fd884e3b7fa6" d="m205.63,330.63c-3.47,0-6.91-.15-10.31-.43l-6.6,79.73c5.58.45,11.21.7,16.91.7s11.36-.24,16.95-.7l-6.61-79.73c-3.41.28-6.85.43-10.33.43Zm0-250c3.48,0,6.93.15,10.33.43L222.57,1.33c-5.59-.46-11.24-.7-16.95-.7s-11.33.24-16.91.7l6.6,79.73c3.4-.28,6.84-.43,10.31-.43Z"/>
    </g>
    <g id="uuid-2d0e570c-a1e8-4451-bee9-a93a2ed6be76" data-name="Ôèãóðà 23" class="uuid-311c67f0-b78a-4e2a-a25f-488127df1b7a">
      <path class="uuid-b7dd0140-df58-4c19-97f0-4ffe1cae90aa" d="m205.63,41.21c-90.8,0-164.41,73.61-164.41,164.41s73.61,164.41,164.41,164.41,164.41-73.61,164.41-164.41S296.43,41.21,205.63,41.21Zm158.65,158.79h-28.15c-.15-3.48-.43-6.94-.85-10.37l27.76-4.65c.64,4.97,1.06,9.99,1.23,15.01Zm-3.07-26.11l-27.76,4.64c-.7-3.32-1.53-6.62-2.49-9.87l26.63-9.12c1.43,4.72,2.64,9.51,3.62,14.34Zm-7.26-24.99l-26.64,9.12c-.43-1.09-.87-2.17-1.32-3.24-.89-2.1-1.85-4.21-2.86-6.29l24.76-13.39c2.24,4.5,4.26,9.12,6.05,13.8Zm-273.31,56.72c0-69.04,55.96-125,125-125s125,55.96,125,125-55.96,125-125,125-125-55.96-125-125Zm73.92,114.8c-5.95-2.65-11.71-5.78-17.19-9.33,5.48,3.55,11.24,6.68,17.19,9.33Zm187.98-195.22l-24.76,13.39c-1.23-2.05-2.5-4.06-3.82-6.01-.61-.9-1.23-1.8-1.87-2.7l22.21-17.29c2.95,4.07,5.71,8.29,8.25,12.61Zm-15.17-21.48l-22.21,17.29c-2.25-2.65-4.61-5.21-7.05-7.65l19.05-20.72c3.57,3.53,6.99,7.23,10.21,11.08Zm-18.49-18.69l-19.05,20.72c-2.6-2.19-5.28-4.28-8.02-6.26l15.41-23.55c4.02,2.85,7.92,5.89,11.66,9.09Zm-21.07-15.26l-15.42,23.56c-2.98-1.77-6.04-3.43-9.14-4.96l11.32-25.78c4.52,2.18,8.95,4.59,13.24,7.19Zm-37.79-16.61c4.82,1.4,9.59,3.04,14.25,4.89l-11.32,25.78c-3.23-1.26-6.52-2.39-9.84-3.38l6.91-27.29Zm-25.77-5.21c4.99.58,9.96,1.41,14.87,2.46l-6.9,27.29c-3.39-.7-6.82-1.27-10.27-1.7l2.31-28.05Zm-18.61,32.04c3.24,0,6.47.12,9.67.37-3.2-.24-6.43-.37-9.67-.37Zm0-33.13c2.46,0,4.93.06,7.39.17l-2.31,28.05c-1.7-.07-3.4-.1-5.09-.1s-3.39.03-5.09.1l-2.31-28.05c2.46-.11,4.94-.17,7.39-.17Zm-18.61,1.08l2.31,28.05c-3.44.43-6.87,1-10.27,1.7l-6.9-27.29c4.9-1.05,9.87-1.87,14.87-2.46Zm-25.77,5.21l6.91,27.29c-3.32.99-6.61,2.12-9.84,3.38l-11.32-25.78c4.67-1.85,9.43-3.49,14.25-4.89Zm-24.55,9.42l11.32,25.78c-3.11,1.53-6.16,3.19-9.14,4.96l-15.42-23.56c4.3-2.6,8.73-5.01,13.24-7.19Zm-22.65,13.36l15.41,23.55c-2.75,1.98-5.43,4.07-8.02,6.26l-19.05-20.72c3.74-3.21,7.64-6.25,11.66-9.09Zm-19.94,16.71l19.05,20.72c-2.44,2.44-4.79,5-7.05,7.65l-22.21-17.29c3.22-3.84,6.64-7.55,10.21-11.08Zm-17.12,19.95l22.21,17.29c-.64.9-1.26,1.8-1.87,2.7-1.32,1.95-2.6,3.96-3.82,6.01l-24.76-13.39c2.55-4.32,5.3-8.54,8.25-12.61Zm-13.61,22.5l24.76,13.39c-1.02,2.08-1.97,4.18-2.86,6.29-.45,1.07-.89,2.15-1.32,3.24l-26.64-9.12c1.79-4.68,3.82-9.3,6.05-13.8Zm-9.7,24.44l26.63,9.12c-.96,3.25-1.79,6.55-2.49,9.87l-27.76-4.64c.98-4.83,2.19-9.63,3.62-14.34Zm-5.46,25.44l27.76,4.65c-.42,3.43-.7,6.89-.85,10.37h-28.15c.18-5.03.59-10.05,1.23-15.01Zm26.92,26.26c.15,3.48.43,6.94.85,10.37l-27.76,4.65c-.64-4.97-1.06-9.99-1.23-15.01h28.15Zm-30.92,22.02l37.6-6.29-37.6,6.29h0Zm5.85,4.09l27.76-4.64c.7,3.32,1.53,6.62,2.49,9.87l-26.63,9.12c-1.43-4.72-2.64-9.51-3.62-14.34Zm7.26,24.99l26.64-9.12c.43,1.09.87,2.17,1.32,3.24.89,2.1,1.85,4.21,2.86,6.29l-24.76,13.39c-2.24-4.5-4.26-9.12-6.05-13.8Zm11.41,23.69l24.76-13.39c1.23,2.05,2.5,4.06,3.82,6.01.61.9,1.23,1.8,1.87,2.7l-22.21,17.29c-2.95-4.07-5.71-8.29-8.25-12.61Zm15.17,21.48l22.21-17.29c2.25,2.65,4.61,5.21,7.05,7.65l-19.05,20.72c-3.57-3.53-6.99-7.23-10.21-11.08Zm18.49,18.69l19.05-20.72c2.6,2.19,5.28,4.28,8.02,6.26l-15.41,23.55c-4.02-2.85-7.92-5.89-11.66-9.09Zm21.07,15.26l15.42-23.56c2.98,1.78,6.04,3.43,9.14,4.96l-11.32,25.78c-4.52-2.18-8.95-4.59-13.24-7.19Zm37.79,16.61c-4.82-1.4-9.59-3.04-14.25-4.89l11.32-25.78c3.23,1.26,6.52,2.39,9.84,3.38l-6.91,27.29Zm25.77,5.21c-4.99-.58-9.96-1.41-14.87-2.46l6.9-27.29c3.39.7,6.82,1.27,10.27,1.7l-2.31,28.05Zm18.61,1.08c-2.46,0-4.93-.06-7.39-.17l2.31-28.05c1.7.07,3.4.1,5.09.1s3.39-.03,5.09-.1l2.31,28.05c-2.46.11-4.94.17-7.39.17Zm0-33.13c3.24,0,6.47-.12,9.67-.37-3.2.24-6.43.37-9.67.37Zm18.61,32.04l-2.31-28.05c3.44-.43,6.87-1,10.27-1.7l6.9,27.29c-4.9,1.05-9.87,1.87-14.87,2.46Zm25.77-5.21l-6.91-27.29c3.32-1,6.61-2.12,9.84-3.38l11.32,25.78c-4.67,1.85-9.43,3.49-14.25,4.89Zm24.55-9.42l-11.32-25.78c3.11-1.53,6.16-3.19,9.14-4.96l15.42,23.56c-4.3,2.6-8.72,5.01-13.24,7.19Zm22.65-13.36l-15.41-23.55c2.75-1.98,5.43-4.07,8.02-6.26l19.05,20.72c-3.74,3.21-7.64,6.25-11.66,9.09Zm19.94-16.71l-19.05-20.72c2.44-2.44,4.79-5,7.05-7.65l22.21,17.29c-3.22,3.84-6.64,7.55-10.21,11.08Zm17.12-19.95l-22.21-17.29c.64-.9,1.26-1.8,1.87-2.7,1.32-1.95,2.6-3.96,3.82-6.01l24.76,13.39c-2.54,4.32-5.3,8.54-8.25,12.61Zm13.61-22.5l-24.76-13.39c1.02-2.08,1.97-4.18,2.86-6.29.45-1.07.89-2.15,1.32-3.24l26.64,9.12c-1.79,4.68-3.82,9.3-6.05,13.8Zm9.7-24.44l-26.63-9.12c.96-3.25,1.79-6.55,2.49-9.87l27.76,4.64c-.98,4.83-2.19,9.63-3.62,14.34Zm5.46-25.44l-27.76-4.65c.42-3.43.7-6.89.85-10.37h28.15c-.18,5.03-.59,10.05-1.23,15.01Z"/>
    </g>
    <g id="uuid-472440b9-c0bc-4d0c-b794-e4b2567c0df5" data-name="Ôèãóðà 22" class="uuid-f8afd85d-ebc3-4415-a1ea-ad1636dad25e">
      <path class="uuid-b7dd0140-df58-4c19-97f0-4ffe1cae90aa" d="m370.04,205.63c0-90.8-73.61-164.41-164.41-164.41S41.21,114.82,41.21,205.63s73.61,164.41,164.41,164.41,164.41-73.61,164.41-164.41Zm-35.51,94.8l-24.18-18.82c.88-1.21,1.73-2.42,2.55-3.64,1.53-2.26,3-4.6,4.4-6.98l26.96,14.58c-2.96,5.12-6.22,10.1-9.73,14.87Zm-128.9,30.2c-69.04,0-125-55.96-125-125s55.96-125,125-125,125,55.96,125,125-55.96,125-125,125Zm48.9-9.25c-5.7,2.41-11.53,4.38-17.47,5.91h0c5.94-1.53,11.77-3.5,17.47-5.91Zm-80.33,5.91h0c-5.94-1.53-11.77-3.5-17.47-5.91,5.7,2.41,11.53,4.38,17.47,5.91Zm-19.65-6.86c-5.95-2.65-11.71-5.78-17.19-9.33,5.48,3.55,11.24,6.68,17.19,9.33Zm-59.74-55.59c-1.8-3.37-3.45-6.81-4.93-10.31,1.48,3.5,3.13,6.95,4.93,10.31Zm253.62,13.03l-26.96-14.58c1.2-2.41,2.33-4.86,3.36-7.3.6-1.42,1.18-2.87,1.74-4.33l28.99,9.93c-2.07,5.54-4.46,10.99-7.14,16.28Zm9.97-24.56l-28.99-9.93c1.21-3.97,2.23-8.02,3.05-12.09l30.22,5.06c-1.11,5.72-2.55,11.4-4.28,16.96Zm5.71-25.6l-30.22-5.06c.55-4.18.89-8.41,1.03-12.65h30.64c-.16,5.93-.65,11.86-1.45,17.71Zm1.45-26.46h-30.64c-.14-4.25-.49-8.48-1.03-12.65l30.22-5.06c.81,5.85,1.29,11.78,1.45,17.71Zm-2.89-26.34l-30.22,5.06c-.82-4.08-1.84-8.12-3.05-12.09l28.99-9.93c1.73,5.56,3.17,11.24,4.28,16.96Zm-7.11-25.24l-28.99,9.93c-.56-1.46-1.14-2.9-1.74-4.33-1.03-2.45-2.16-4.89-3.36-7.3l26.96-14.58c2.68,5.29,5.07,10.74,7.14,16.28Zm-11.31-23.97l-26.96,14.58c-1.4-2.38-2.87-4.72-4.4-6.98-.82-1.22-1.68-2.43-2.55-3.64l24.18-18.82c3.51,4.77,6.77,9.75,9.73,14.87Zm-15.11-21.77l-24.18,18.82c-2.5-2.99-5.13-5.87-7.86-8.6-.24-.25-.49-.49-.74-.74l20.74-22.55c4.25,4.13,8.28,8.5,12.04,13.07Zm-18.48-18.99l-20.74,22.55c-3.16-2.71-6.45-5.28-9.83-7.67l16.78-25.64c4.78,3.33,9.4,6.93,13.79,10.75Zm-21.11-15.55l-16.78,25.64c-3.62-2.2-7.35-4.23-11.16-6.06l12.32-28.07c5.35,2.53,10.58,5.37,15.62,8.48Zm-17.52-13.48l-15.33,34.92,15.33-34.92h0Zm-22.92-4.3c5.7,1.61,11.33,3.54,16.81,5.77l-12.32,28.06c-3.93-1.57-7.95-2.95-12.01-4.13l7.52-29.71Zm-26.02-5.04c5.89.64,11.77,1.61,17.54,2.9l-7.52,29.71c-4.13-.89-8.32-1.58-12.53-2.07l2.51-30.53Zm-17.47-.94c2.91,0,5.83.08,8.75.24l-2.51,30.54c-2.08-.1-4.16-.15-6.23-.15s-4.16.05-6.23.15l-2.51-30.54c2.91-.16,5.84-.24,8.75-.24Zm-17.47.94l2.51,30.53c-4.21.48-8.4,1.18-12.53,2.07l-7.52-29.71c5.77-1.29,11.64-2.26,17.53-2.9Zm-26.02,5.04l7.52,29.71c-4.06,1.17-8.08,2.56-12.01,4.13l-12.32-28.06c5.48-2.23,11.11-4.16,16.81-5.77Zm-24.82,9.29l12.32,28.07c-3.81,1.83-7.54,3.86-11.16,6.06l-16.78-25.64c5.04-3.11,10.27-5.95,15.62-8.48Zm-22.94,13.28l16.78,25.64c-3.39,2.39-6.68,4.96-9.83,7.67l-20.74-22.55c4.39-3.83,9.01-7.43,13.79-10.75Zm-20.23,16.68l20.74,22.55c-.25.25-.5.49-.74.73-2.73,2.73-5.36,5.61-7.86,8.6l-24.18-18.82c3.76-4.56,7.8-8.94,12.04-13.07Zm-17.42,19.97l24.18,18.82c-.88,1.21-1.73,2.42-2.55,3.64-1.53,2.26-3,4.6-4.4,6.98l-26.96-14.58c2.96-5.12,6.22-10.1,9.73-14.87Zm-13.9,22.56l26.96,14.58c-1.2,2.41-2.33,4.86-3.36,7.3-.6,1.42-1.18,2.87-1.74,4.33l-28.99-9.93c2.07-5.54,4.46-10.99,7.14-16.28Zm-9.97,24.56l28.99,9.93c-1.21,3.97-2.23,8.02-3.05,12.09l-30.22-5.06c1.11-5.72,2.55-11.4,4.28-16.96Zm-5.71,25.6l30.22,5.06c-.55,4.18-.89,8.41-1.03,12.65h-30.64c.16-5.93.65-11.86,1.45-17.71Zm29.19,26.46c.14,4.25.49,8.48,1.03,12.65l-30.22,5.06c-.81-5.85-1.29-11.78-1.45-17.71h30.64Zm-32.12,23.27l37.6-6.29-37.6,6.29h0Zm4.37,3.07l30.22-5.06c.82,4.08,1.84,8.12,3.05,12.09l-28.99,9.93c-1.73-5.56-3.17-11.24-4.28-16.96Zm7.11,25.24l28.99-9.93c.56,1.46,1.14,2.9,1.74,4.33,1.03,2.45,2.16,4.89,3.36,7.3l-26.96,14.58c-2.68-5.29-5.07-10.74-7.14-16.28Zm11.31,23.97l26.96-14.58c1.4,2.38,2.87,4.72,4.4,6.98.82,1.22,1.68,2.43,2.55,3.64l-24.18,18.82c-3.51-4.77-6.77-9.75-9.73-14.87Zm15.11,21.77l24.18-18.82c2.5,2.99,5.13,5.87,7.86,8.6.24.25.49.49.74.74l-20.74,22.55c-4.25-4.13-8.28-8.5-12.04-13.07Zm18.48,18.99l20.74-22.55c3.16,2.71,6.45,5.28,9.83,7.67l-16.78,25.64c-4.78-3.33-9.4-6.93-13.79-10.75Zm21.11,15.55l16.78-25.64c3.62,2.2,7.35,4.23,11.16,6.06l-12.32,28.07c-5.35-2.53-10.58-5.37-15.62-8.48Zm40.44,17.77c-5.7-1.61-11.33-3.54-16.81-5.77l12.32-28.06c3.93,1.57,7.95,2.95,12.01,4.13l-7.52,29.71Zm26.02,5.04c-5.89-.64-11.77-1.61-17.53-2.9l7.52-29.71c4.13.89,8.32,1.58,12.53,2.07l-2.51,30.53Zm17.47.94c-2.91,0-5.83-.08-8.75-.24l2.51-30.54c2.08.1,4.16.15,6.23.15s4.16-.05,6.23-.15l2.51,30.54c-2.91.16-5.84.24-8.75.24Zm17.47-.94l-2.51-30.53c4.21-.48,8.4-1.18,12.53-2.07l7.52,29.71c-5.77,1.29-11.64,2.26-17.54,2.9Zm26.02-5.04l-7.52-29.71c4.06-1.17,8.08-2.56,12.01-4.13l12.32,28.06c-5.48,2.23-11.11,4.16-16.81,5.77Zm24.82-9.29l-12.32-28.07c3.81-1.83,7.54-3.86,11.16-6.06l16.78,25.64c-5.04,3.11-10.27,5.95-15.62,8.48Zm22.94-13.28l-16.78-25.64c3.39-2.39,6.68-4.96,9.83-7.67l20.74,22.55c-4.4,3.83-9.01,7.43-13.79,10.75Zm20.23-16.68l-20.74-22.55c.25-.25.5-.49.74-.74,2.73-2.73,5.36-5.61,7.86-8.6l24.18,18.82c-3.76,4.56-7.8,8.94-12.04,13.07Z"/>
    </g>
    <g id="uuid-9fbd7825-9fa8-445e-9cf9-49a60afb8234" data-name="Ôèãóðà 21" class="uuid-b7c6823b-1ce0-4919-9f73-94073d932b6a">
      <path class="uuid-b7dd0140-df58-4c19-97f0-4ffe1cae90aa" d="m205.63,41.21c-90.8,0-164.41,73.61-164.41,164.41s73.61,164.41,164.41,164.41,164.41-73.61,164.41-164.41S296.43,41.21,205.63,41.21Zm161.22,161.29h-33.13c-.12-5.02-.53-10.02-1.22-14.94l32.68-5.47c.98,6.73,1.54,13.57,1.67,20.41Zm-2.7-26.57l-32.68,5.47c-.93-4.83-2.14-9.63-3.61-14.32l31.35-10.73c2.05,6.4,3.71,12.97,4.94,19.58Zm-33.52,29.7c0,69.04-55.96,125-125,125s-125-55.96-125-125,55.96-125,125-125,125,55.96,125,125Zm26.55-55.19l-31.35,10.73c-.68-1.83-1.39-3.64-2.15-5.42-1.18-2.79-2.48-5.57-3.88-8.31l29.15-15.76c3.14,6.07,5.89,12.36,8.23,18.75Zm-11.2-24.25l-29.15,15.76c-1.56-2.72-3.22-5.39-4.96-7.96-1.04-1.53-2.12-3.07-3.25-4.58l26.14-20.35c4.09,5.46,7.85,11.21,11.21,17.13Zm-15.05-22.06l-26.15,20.35c-2.7-3.29-5.57-6.46-8.55-9.45-.52-.52-1.06-1.05-1.6-1.57l22.42-24.39c4.93,4.71,9.58,9.76,13.87,15.05Zm-18.47-19.29l-22.43,24.39c-3.71-3.25-7.61-6.29-11.64-9.08l18.14-27.73c5.55,3.79,10.89,7.96,15.92,12.41Zm-21.15-15.84l-18.15,27.73c-4.24-2.64-8.66-5.03-13.17-7.15l13.32-30.35c6.18,2.86,12.22,6.14,18,9.77Zm-23.72-12.29l-13.32,30.35c-4.62-1.9-9.38-3.53-14.18-4.87l8.13-32.12c6.58,1.8,13.07,4.03,19.37,6.65Zm-45.63-11.52c6.8.68,13.57,1.8,20.2,3.34l-8.13,32.12c-4.86-1.1-9.82-1.92-14.79-2.44l2.71-33.02Zm-6.65,35.17h0l3.12-38-3.12,38Zm-9.67-35.99c3.36,0,6.74.1,10.1.31l-2.71,33.02c-2.46-.14-4.93-.21-7.38-.21s-4.93.07-7.38.21l-2.71-33.02c3.35-.21,6.74-.31,10.1-.31Zm-16.33.82l2.71,33.02c-4.97.52-9.93,1.34-14.79,2.44l-8.13-32.12c6.63-1.54,13.41-2.65,20.2-3.34Zm-26.26,4.87l8.13,32.12c-4.8,1.34-9.55,2.97-14.18,4.87l-13.32-30.35c6.3-2.62,12.79-4.85,19.37-6.65Zm-25.09,9.16l13.32,30.35c-4.51,2.12-8.93,4.52-13.17,7.15l-18.14-27.73c5.78-3.63,11.81-6.91,18-9.77Zm-23.22,13.2l18.14,27.73c-4.03,2.79-7.94,5.83-11.64,9.08l-22.43-24.39c5.04-4.46,10.38-8.62,15.92-12.41Zm-20.52,16.65l22.42,24.39c-.54.52-1.08,1.05-1.6,1.57-2.99,2.99-5.86,6.16-8.55,9.45l-26.14-20.35c4.29-5.29,8.95-10.34,13.87-15.05Zm-17.72,19.98l26.14,20.35c-1.12,1.51-2.21,3.05-3.25,4.58-1.74,2.57-3.4,5.24-4.96,7.96l-29.15-15.76c3.36-5.92,7.12-11.67,11.21-17.13Zm-14.19,22.63l29.15,15.76c-1.4,2.74-2.7,5.52-3.88,8.31-.75,1.78-1.47,3.59-2.15,5.42l-31.35-10.73c2.33-6.4,5.09-12.69,8.23-18.75Zm-10.25,24.67l31.35,10.73c-1.48,4.69-2.69,9.48-3.61,14.32l-32.68-5.47c1.23-6.61,2.89-13.18,4.94-19.58Zm-5.96,25.75l32.68,5.47c-.69,4.92-1.1,9.92-1.22,14.94h-33.13c.13-6.84.69-13.68,1.67-20.41Zm31.46,26.66c.12,5.02.53,10.02,1.22,14.94l-32.68,5.47c-.98-6.73-1.54-13.57-1.67-20.41h33.13Zm-33.34,24.52l37.6-6.29-37.6,6.29h0Zm2.9,2.05l32.68-5.47c.93,4.83,2.14,9.63,3.61,14.32l-31.35,10.73c-2.05-6.4-3.71-12.97-4.94-19.58Zm6.97,25.5l31.35-10.73c.68,1.83,1.39,3.64,2.15,5.42,1.18,2.79,2.48,5.57,3.88,8.31l-29.15,15.76c-3.14-6.07-5.89-12.36-8.23-18.75Zm11.2,24.25l29.15-15.76c1.56,2.72,3.22,5.39,4.96,7.96,1.04,1.53,2.12,3.07,3.25,4.58l-26.14,20.35c-4.09-5.46-7.85-11.21-11.21-17.13Zm15.05,22.06l26.14-20.35c2.7,3.29,5.57,6.46,8.55,9.45.52.52,1.06,1.05,1.6,1.57l-22.42,24.39c-4.93-4.71-9.58-9.76-13.87-15.05Zm18.47,19.29l22.43-24.39c3.71,3.25,7.61,6.29,11.64,9.08l-18.14,27.73c-5.55-3.79-10.89-7.96-15.92-12.41Zm21.15,15.84l18.14-27.73c4.24,2.64,8.66,5.03,13.17,7.15l-13.32,30.35c-6.18-2.86-12.22-6.14-18-9.77Zm23.72,12.29l13.32-30.35c4.62,1.9,9.38,3.53,14.18,4.87l-8.13,32.12c-6.58-1.8-13.07-4.03-19.37-6.65Zm45.63,11.52c-6.8-.68-13.57-1.8-20.2-3.34l8.13-32.12c4.86,1.1,9.82,1.92,14.79,2.44l-2.71,33.02Zm16.33.82c-3.36,0-6.74-.1-10.1-.31l2.71-33.02c2.46.14,4.93.21,7.38.21s4.93-.07,7.38-.21l2.71,33.02c-3.35.21-6.74.31-10.1.31Zm16.33-.82l-2.71-33.02c4.97-.52,9.93-1.34,14.79-2.44l8.13,32.12c-6.63,1.54-13.41,2.65-20.2,3.34Zm26.26-4.87l-8.13-32.12c4.8-1.34,9.55-2.97,14.18-4.87l13.32,30.35c-6.3,2.62-12.79,4.85-19.37,6.65Zm25.09-9.16l-13.32-30.35c4.51-2.12,8.93-4.52,13.17-7.15l18.15,27.73c-5.78,3.63-11.81,6.91-18,9.77Zm23.22-13.2l-18.14-27.73c4.03-2.79,7.93-5.83,11.64-9.08l22.43,24.39c-5.04,4.46-10.38,8.62-15.92,12.41Zm20.52-16.65l-22.42-24.39c.54-.52,1.08-1.05,1.6-1.57,2.99-2.99,5.86-6.16,8.55-9.45l26.15,20.35c-4.29,5.29-8.95,10.34-13.87,15.05Zm17.72-19.98l-26.14-20.35c1.12-1.51,2.21-3.05,3.25-4.58,1.74-2.57,3.4-5.24,4.96-7.96l29.15,15.76c-3.36,5.92-7.12,11.67-11.21,17.13Zm14.19-22.63l-29.15-15.76c1.4-2.74,2.7-5.52,3.88-8.31.75-1.78,1.47-3.59,2.15-5.42l31.35,10.74c-2.33,6.4-5.09,12.69-8.23,18.75Zm10.25-24.67l-31.35-10.73c1.48-4.69,2.69-9.48,3.61-14.32l32.68,5.47c-1.23,6.61-2.89,13.18-4.94,19.58Zm5.97-25.75l-32.68-5.47c.69-4.92,1.1-9.92,1.22-14.94h33.13c-.13,6.84-.69,13.68-1.67,20.41Z"/>
    </g>
    <g id="uuid-94c60b39-058f-4f9d-b061-b36400613a3b" data-name="Ôèãóðà 20" class="uuid-0a15256f-0bd0-4960-aab9-6b80731cab5c">
      <path class="uuid-b7dd0140-df58-4c19-97f0-4ffe1cae90aa" d="m205.63,41.21c-90.8,0-164.41,73.61-164.41,164.41s73.61,164.41,164.41,164.41,164.41-73.61,164.41-164.41S296.43,41.21,205.63,41.21Zm161.86,161.91h-34.38c-.1-5.4-.54-10.79-1.31-16.08l33.91-5.67c1.08,7.16,1.67,14.46,1.79,21.75Zm-2.61-26.68l-33.91,5.67c-.97-5.21-2.28-10.39-3.89-15.43l32.53-11.14c2.22,6.82,3.99,13.83,5.27,20.89Zm-34.25,29.18c0,69.04-55.96,125-125,125s-125-55.96-125-125,55.96-125,125-125,125,55.96,125,125Zm27.36-54.81l-32.53,11.14c-.73-2.01-1.52-4.01-2.35-5.96-1.25-2.96-2.64-5.92-4.14-8.81l30.25-16.35c3.37,6.45,6.31,13.16,8.77,19.99Zm-11.15-24.39l-30.25,16.36c-1.64-2.89-3.4-5.73-5.24-8.45-1.14-1.69-2.35-3.38-3.59-5.05l27.13-21.12c4.38,5.81,8.39,11.94,11.95,18.26Zm-15.03-22.21l-27.13,21.12c-2.8-3.45-5.78-6.76-8.9-9.88-.66-.66-1.34-1.33-2.03-1.99l23.27-25.31c5.27,5,10.24,10.39,14.79,16.05Zm-18.47-19.43l-23.27,25.31c-3.98-3.52-8.19-6.8-12.54-9.78l18.83-28.77c5.93,4.02,11.63,8.47,16.99,13.24Zm-21.17-15.99l-18.83,28.77c-4.55-2.86-9.31-5.44-14.18-7.7l13.82-31.49c6.6,3.03,13.04,6.52,19.18,10.42Zm-23.76-12.43l-13.82,31.49c-4.96-2.07-10.09-3.83-15.26-5.24l8.43-33.33c7.02,1.89,13.95,4.27,20.65,7.09Zm-47.03-11.87c7.25.7,14.47,1.9,21.53,3.56l-8.43,33.33c-5.22-1.21-10.56-2.09-15.92-2.63l2.82-34.26Zm-6.08,35.86h0l3.12-38-3.12,38Zm-9.67-36.62c3.58,0,7.2.12,10.77.35l-2.82,34.26c-2.64-.16-5.31-.24-7.95-.24s-5.31.08-7.95.24l-2.82-34.26c3.58-.23,7.19-.35,10.77-.35Zm-15.75.76l2.82,34.26c-5.35.54-10.69,1.42-15.92,2.63l-8.43-33.33c7.06-1.66,14.29-2.86,21.53-3.56Zm-26.38,4.78l8.43,33.33c-5.17,1.42-10.29,3.18-15.26,5.24l-13.82-31.49c6.7-2.82,13.63-5.2,20.65-7.09Zm-25.22,9.1l13.82,31.49c-4.87,2.26-9.62,4.84-14.18,7.7l-18.83-28.77c6.14-3.89,12.58-7.39,19.18-10.42Zm-23.36,13.16l18.83,28.77c-4.36,2.98-8.57,6.26-12.55,9.78l-23.27-25.31c5.35-4.78,11.06-9.22,16.99-13.24Zm-20.67,16.63l23.27,25.31c-.69.66-1.37,1.32-2.03,1.99-3.11,3.12-6.1,6.43-8.9,9.88l-27.13-21.12c4.55-5.66,9.52-11.04,14.79-16.05Zm-17.86,19.99l27.13,21.12c-1.25,1.67-2.45,3.36-3.6,5.05-1.84,2.72-3.6,5.56-5.24,8.45l-30.25-16.36c3.56-6.33,7.57-12.46,11.95-18.26Zm-14.33,22.66l30.25,16.35c-1.5,2.9-2.89,5.86-4.14,8.81-.83,1.95-1.61,3.95-2.35,5.96l-32.53-11.14c2.46-6.83,5.4-13.54,8.77-19.99Zm-10.39,24.72l32.53,11.14c-1.62,5.04-2.92,10.22-3.89,15.43l-33.91-5.67c1.29-7.06,3.06-14.07,5.27-20.89Zm-6.09,25.82l33.91,5.67c-.77,5.28-1.21,10.68-1.31,16.08h-34.38c.11-7.29.71-14.59,1.79-21.75Zm32.6,26.75c.1,5.4.54,10.79,1.31,16.08l-33.91,5.67c-1.08-7.16-1.67-14.46-1.79-21.75h34.38Zm-33.95,25.15l37.6-6.29-37.6,6.29h0Zm2.17,1.54l33.91-5.67c.97,5.21,2.28,10.39,3.89,15.43l-32.53,11.14c-2.22-6.82-3.98-13.83-5.27-20.89Zm6.89,25.62l32.53-11.14c.73,2.01,1.52,4.01,2.35,5.96,1.25,2.96,2.64,5.91,4.14,8.81l-30.25,16.35c-3.37-6.45-6.31-13.16-8.77-19.99Zm11.15,24.39l30.25-16.35c1.64,2.89,3.4,5.73,5.24,8.45,1.14,1.69,2.35,3.38,3.59,5.05l-27.13,21.12c-4.38-5.81-8.39-11.94-11.95-18.26Zm15.03,22.21l27.13-21.12c2.8,3.45,5.78,6.76,8.9,9.88.66.66,1.34,1.33,2.03,1.99l-23.27,25.31c-5.27-5-10.24-10.39-14.79-16.05Zm18.47,19.43l23.27-25.31c3.98,3.52,8.19,6.8,12.55,9.78l-18.83,28.77c-5.93-4.02-11.63-8.47-16.99-13.24Zm21.17,15.99l18.83-28.77c4.55,2.86,9.31,5.44,14.18,7.7l-13.82,31.49c-6.6-3.03-13.04-6.52-19.18-10.42Zm23.76,12.43l13.82-31.49c4.97,2.07,10.09,3.83,15.26,5.24l-8.43,33.33c-7.02-1.89-13.95-4.27-20.65-7.09Zm47.03,11.87c-7.25-.7-14.47-1.9-21.53-3.56l8.43-33.33c5.23,1.21,10.56,2.09,15.92,2.63l-2.82,34.26Zm15.75.76c-3.58,0-7.2-.12-10.77-.35l2.82-34.26c2.64.16,5.31.24,7.95.24s5.31-.08,7.95-.24l2.82,34.26c-3.58.23-7.19.35-10.77.35Zm15.75-.76l-2.82-34.26c5.35-.54,10.69-1.42,15.92-2.63l8.43,33.33c-7.06,1.66-14.29,2.86-21.53,3.56Zm26.38-4.78l-8.43-33.33c5.17-1.42,10.29-3.18,15.26-5.24l13.82,31.49c-6.7,2.82-13.63,5.2-20.65,7.09Zm25.22-9.1l-13.82-31.49c4.87-2.26,9.62-4.84,14.18-7.7l18.83,28.77c-6.14,3.89-12.58,7.39-19.18,10.42Zm23.36-13.16l-18.83-28.77c4.36-2.98,8.57-6.26,12.54-9.78l23.27,25.31c-5.35,4.78-11.06,9.22-16.99,13.24Zm20.67-16.63l-23.27-25.31c.69-.66,1.37-1.32,2.03-1.99,3.12-3.12,6.1-6.43,8.9-9.88l27.13,21.12c-4.55,5.66-9.52,11.04-14.79,16.05Zm17.86-19.99l-27.13-21.12c1.25-1.66,2.45-3.36,3.59-5.05,1.84-2.72,3.6-5.56,5.24-8.45l30.25,16.35c-3.56,6.33-7.57,12.46-11.95,18.26Zm14.33-22.66l-30.25-16.35c1.5-2.9,2.89-5.85,4.14-8.81.83-1.95,1.61-3.95,2.35-5.96l32.53,11.14c-2.46,6.83-5.4,13.54-8.77,19.99Zm10.39-24.72l-32.53-11.14c1.62-5.04,2.92-10.22,3.89-15.43l33.91,5.67c-1.29,7.06-3.06,14.07-5.27,20.89Zm6.09-25.82l-33.91-5.67c.77-5.28,1.21-10.68,1.31-16.08h34.38c-.11,7.29-.71,14.59-1.79,21.75Z"/>
    </g>
    <g id="uuid-2761c286-65e2-4981-bbe5-f46d770ce1b7" data-name="Ôèãóðà 19" class="uuid-b2f003ca-416f-4f34-a483-951fdd8427e6">
      <path class="uuid-b7dd0140-df58-4c19-97f0-4ffe1cae90aa" d="m370.04,205.63c0-90.8-73.61-164.41-164.41-164.41S41.21,114.82,41.21,205.63s73.61,164.41,164.41,164.41,164.41-73.61,164.41-164.41Zm-35.04,98.34l-28.11-21.89c1.37-1.81,2.7-3.66,3.95-5.51,1.94-2.88,3.79-5.88,5.51-8.94l31.35,16.95c-3.75,6.73-8.01,13.25-12.69,19.39Zm-129.37,26.66c-69.04,0-125-55.96-125-125s55.96-125,125-125,125,55.96,125,125-55.96,125-125,125Zm48.9-9.25c-5.7,2.41-11.53,4.38-17.47,5.91h0c5.94-1.53,11.77-3.5,17.47-5.91Zm-80.33,5.91h0c-5.94-1.53-11.77-3.5-17.47-5.91,5.7,2.41,11.53,4.38,17.47,5.91Zm175.28-46.02l-31.35-16.95c1.6-3.06,3.08-6.18,4.4-9.31.9-2.13,1.75-4.31,2.54-6.51l33.71,11.54c-2.58,7.26-5.71,14.39-9.31,21.23Zm10.53-24.78l-33.71-11.54c1.76-5.39,3.16-10.95,4.17-16.54l35.14,5.88c-1.34,7.51-3.22,14.96-5.6,22.2Zm6.22-25.9l-35.14-5.88c.85-5.65,1.32-11.43,1.41-17.22h35.63c-.09,7.74-.72,15.5-1.9,23.1Zm1.9-26.85h-35.63c-.08-5.79-.56-11.57-1.41-17.22l35.14-5.88c1.17,7.6,1.81,15.36,1.9,23.1Zm-2.51-26.8l-35.14,5.88c-1.01-5.59-2.42-11.15-4.17-16.54l33.71-11.54c2.38,7.24,4.26,14.69,5.6,22.2Zm-6.82-25.75l-33.71,11.54c-.79-2.2-1.64-4.38-2.54-6.51-1.32-3.13-2.8-6.26-4.4-9.31l31.35-16.95c3.6,6.84,6.73,13.97,9.31,21.23Zm-11.1-24.52l-31.35,16.95c-1.72-3.06-3.57-6.07-5.51-8.94-1.25-1.85-2.57-3.7-3.95-5.51l28.11-21.89c4.68,6.15,8.94,12.66,12.69,19.39Zm-15-22.35l-28.11,21.89c-2.89-3.6-6-7.06-9.24-10.3-.8-.8-1.63-1.6-2.46-2.4l24.11-26.22c5.62,5.29,10.89,11.01,15.7,17.04Zm-18.46-19.58l-24.12,26.23c-4.25-3.79-8.76-7.32-13.45-10.49l19.51-29.81c6.32,4.25,12.38,8.98,18.05,14.07Zm-21.19-16.13l-19.51,29.82c-4.86-3.08-9.96-5.85-15.18-8.24l14.33-32.63c7.02,3.18,13.86,6.9,20.37,11.06Zm-23.8-12.57l-14.32,32.63c-5.31-2.24-10.8-4.12-16.34-5.61l8.74-34.54c7.46,1.98,14.82,4.5,21.92,7.53Zm-48.43-12.22c7.7.71,15.38,1.98,22.87,3.78l-8.74,34.54c-5.59-1.32-11.31-2.27-17.05-2.82l2.92-35.51Zm-15.18-.7c3.81,0,7.65.13,11.45.4l-2.92,35.51c-2.83-.19-5.69-.28-8.53-.28s-5.7.09-8.53.28l-2.92-35.51c3.79-.26,7.64-.4,11.45-.4Zm-15.18.7l2.92,35.51c-5.74.55-11.46,1.49-17.05,2.82l-8.74-34.54c7.49-1.8,15.17-3.07,22.87-3.78Zm-26.5,4.7l8.74,34.54c-5.54,1.49-11.03,3.37-16.34,5.61l-14.32-32.63c7.1-3.02,14.46-5.55,21.92-7.53Zm-25.36,9.04l14.32,32.63c-5.23,2.39-10.32,5.16-15.18,8.24l-19.51-29.82c6.51-4.16,13.35-7.88,20.37-11.06Zm-23.51,13.12l19.51,29.81c-4.68,3.17-9.2,6.69-13.45,10.49l-24.11-26.23c5.67-5.1,11.73-9.82,18.05-14.07Zm-20.81,16.61l24.11,26.22c-.84.79-1.66,1.6-2.46,2.4-3.24,3.24-6.35,6.71-9.24,10.3l-28.11-21.89c4.81-6.03,10.09-11.75,15.7-17.04Zm-18.01,20l28.11,21.89c-1.37,1.82-2.7,3.66-3.95,5.51-1.94,2.88-3.79,5.88-5.51,8.94l-31.35-16.95c3.75-6.73,8.01-13.25,12.69-19.39Zm-14.48,22.69l31.35,16.95c-1.6,3.06-3.08,6.18-4.4,9.31-.9,2.13-1.75,4.31-2.54,6.51l-33.71-11.54c2.58-7.26,5.71-14.39,9.31-21.23Zm-10.53,24.78l33.71,11.54c-1.76,5.39-3.16,10.95-4.17,16.54l-35.14-5.88c1.34-7.51,3.22-14.96,5.6-22.2Zm-6.22,25.9l35.14,5.88c-.85,5.65-1.32,11.43-1.41,17.22h-35.63c.09-7.74.73-15.5,1.9-23.1Zm-1.9,26.85h35.63c.08,5.79.56,11.57,1.41,17.22l-35.14,5.88c-1.17-7.6-1.81-15.36-1.9-23.1Zm2.51,26.8l35.14-5.88c1.01,5.59,2.42,11.14,4.17,16.54l-33.71,11.54c-2.38-7.24-4.26-14.7-5.6-22.2Zm6.82,25.75l33.71-11.54c.79,2.19,1.64,4.38,2.54,6.51,1.32,3.13,2.8,6.26,4.4,9.31l-31.35,16.95c-3.6-6.84-6.73-13.97-9.31-21.23Zm11.1,24.52l31.35-16.95c1.72,3.06,3.57,6.07,5.51,8.94,1.25,1.85,2.57,3.7,3.95,5.51l-28.11,21.89c-4.68-6.15-8.94-12.66-12.69-19.39Zm15,22.35l28.11-21.89c2.89,3.6,6,7.06,9.24,10.3.8.8,1.63,1.61,2.47,2.4l-24.11,26.22c-5.62-5.29-10.89-11.01-15.7-17.04Zm18.46,19.58l24.12-26.22c4.25,3.79,8.76,7.31,13.45,10.49l-19.51,29.81c-6.32-4.25-12.38-8.98-18.05-14.07Zm21.19,16.13l19.51-29.82c4.86,3.08,9.96,5.85,15.18,8.24l-14.32,32.63c-7.02-3.18-13.86-6.9-20.37-11.06Zm23.8,12.57l14.32-32.63c5.31,2.24,10.8,4.12,16.34,5.62l-8.74,34.54c-7.46-1.97-14.82-4.5-21.92-7.53Zm48.43,12.22c-7.7-.71-15.38-1.98-22.87-3.78l8.74-34.54c5.59,1.32,11.31,2.27,17.05,2.82l-2.92,35.51Zm15.18.7c-3.81,0-7.65-.13-11.45-.4l2.92-35.51c2.83.19,5.69.28,8.53.28s5.7-.09,8.53-.28l2.92,35.51c-3.79.26-7.64.4-11.45.4Zm15.18-.7l-2.92-35.51c5.74-.55,11.46-1.49,17.05-2.82l8.74,34.54c-7.49,1.8-15.17,3.07-22.87,3.78Zm26.5-4.7l-8.74-34.54c5.54-1.49,11.04-3.38,16.34-5.62l14.32,32.63c-7.1,3.02-14.46,5.55-21.92,7.53Zm25.36-9.04l-14.33-32.63c5.22-2.39,10.32-5.16,15.18-8.24l19.51,29.82c-6.51,4.16-13.35,7.88-20.37,11.06Zm23.5-13.12l-19.51-29.81c4.68-3.17,9.2-6.69,13.45-10.49l24.12,26.22c-5.67,5.1-11.73,9.82-18.05,14.07Zm20.81-16.61l-24.11-26.22c.84-.79,1.66-1.6,2.46-2.4,3.24-3.24,6.35-6.71,9.24-10.3l28.11,21.89c-4.81,6.03-10.08,11.75-15.7,17.04Z"/>
    </g>
    <g id="uuid-7b4f42d4-237d-4a14-9656-719a4ddaf9d3" data-name="Ôèãóðà 18" class="uuid-15b75822-c87a-4fef-baf5-bfb5cf5c9dd5">
      <path class="uuid-b7dd0140-df58-4c19-97f0-4ffe1cae90aa" d="m205.63,41.21c-90.8,0-164.41,73.61-164.41,164.41s73.61,164.41,164.41,164.41,164.41-73.61,164.41-164.41S296.43,41.21,205.63,41.21Zm163.12,163.16h-36.88c-.06-6.17-.56-12.34-1.5-18.36l36.37-6.09c1.27,8.03,1.95,16.25,2.01,24.44Zm-163.12,126.25c-69.04,0-125-55.96-125-125s55.96-125,125-125,125,55.96,125,125-55.96,125-125,125Zm48.9-9.25c-5.7,2.41-11.53,4.38-17.47,5.91h0c5.94-1.53,11.77-3.5,17.47-5.91Zm-80.33,5.91h0c-5.94-1.53-11.77-3.5-17.47-5.91,5.7,2.41,11.53,4.38,17.47,5.91Zm192.13-149.83l-36.37,6.09c-1.05-5.97-2.55-11.9-4.45-17.65l34.89-11.95c2.55,7.65,4.55,15.56,5.93,23.51Zm-6.74-25.87l-34.89,11.95c-.84-2.38-1.76-4.75-2.74-7.06-1.4-3.3-2.96-6.6-4.66-9.81l32.44-17.54c3.84,7.22,7.15,14.77,9.85,22.46Zm-11.04-24.66l-32.44,17.54c-1.79-3.23-3.74-6.41-5.79-9.43-1.36-2.01-2.8-4.02-4.3-5.98l29.1-22.65c4.98,6.49,9.49,13.38,13.43,20.52Zm-14.97-22.49l-29.1,22.65c-2.99-3.75-6.21-7.36-9.58-10.73-.94-.94-1.91-1.88-2.9-2.81l24.96-27.14c5.97,5.58,11.55,11.64,16.62,18.03Zm-18.46-19.73l-24.96,27.14c-4.39-3.96-9.08-7.63-13.94-10.91-.14-.09-.27-.18-.41-.27l20.19-30.86c6.71,4.47,13.14,9.48,19.12,14.9Zm-21.21-16.28l-20.19,30.86c-5.17-3.31-10.61-6.27-16.19-8.79l14.83-33.78c7.44,3.34,14.69,7.27,21.56,11.7Zm-23.84-12.71l-14.83,33.77c-.16-.07-.31-.13-.47-.2-5.5-2.33-11.2-4.27-16.95-5.79l9.05-35.75c7.9,2.06,15.7,4.74,23.2,7.96Zm-25.63-8.58l-9.05,35.75c-5.95-1.44-12.06-2.45-18.17-3l3.02-36.75c8.15.72,16.28,2.07,24.2,4Zm-38.81-4.65c4.03,0,8.11.15,12.12.44l-3.02,36.75c-3.02-.21-6.07-.32-9.1-.32s-6.08.11-9.1.32l-3.02-36.75c4.01-.29,8.09-.44,12.12-.44Zm-14.61.65l3.02,36.75c-6.12.55-12.23,1.56-18.17,3l-9.05-35.75c7.91-1.93,16.05-3.28,24.2-4Zm-26.62,4.61l9.05,35.75c-5.75,1.52-11.45,3.46-16.95,5.79-.16.07-.31.13-.47.2l-14.83-33.77c7.5-3.23,15.3-5.91,23.2-7.96Zm-25.49,8.97l14.83,33.78c-5.58,2.52-11.02,5.48-16.19,8.79l-20.19-30.86c6.87-4.43,14.12-8.36,21.56-11.7Zm-23.65,13.08l20.19,30.86c-.14.09-.27.18-.41.27-4.87,3.29-9.55,6.96-13.94,10.91l-24.96-27.14c5.98-5.42,12.41-10.43,19.12-14.9Zm-20.96,16.6l24.96,27.14c-.99.93-1.96,1.87-2.9,2.81-3.37,3.37-6.59,6.98-9.58,10.73l-29.1-22.65c5.07-6.4,10.65-12.46,16.62-18.03Zm-18.16,20l29.1,22.65c-1.5,1.96-2.94,3.97-4.3,5.98-2.05,3.03-3.99,6.2-5.79,9.43l-32.44-17.54c3.94-7.14,8.45-14.04,13.43-20.52Zm-14.62,22.72l32.44,17.54c-1.7,3.21-3.27,6.51-4.66,9.81-.98,2.3-1.89,4.68-2.74,7.06l-34.89-11.95c2.7-7.69,6.01-15.24,9.85-22.46Zm-10.66,24.83l34.89,11.95c-1.91,5.75-3.4,11.68-4.45,17.65l-36.37-6.09c1.38-7.95,3.38-15.85,5.93-23.51Zm-6.34,25.98l36.37,6.09c-.94,6.02-1.44,12.19-1.5,18.36h-36.88c.06-8.19.74-16.41,2.01-24.44Zm-2.01,26.94h36.88c.06,6.17.56,12.34,1.5,18.36l-36.37,6.09c-1.27-8.03-1.95-16.25-2.01-24.44Zm2.42,26.91l36.37-6.09c1.05,5.97,2.55,11.9,4.45,17.65l-34.89,11.95c-2.55-7.65-4.55-15.56-5.93-23.51Zm6.74,25.87l34.89-11.95c.84,2.38,1.76,4.75,2.74,7.06,1.4,3.3,2.96,6.6,4.66,9.81l-32.44,17.54c-3.84-7.22-7.15-14.77-9.85-22.46Zm11.04,24.66l32.44-17.54c1.79,3.23,3.74,6.41,5.79,9.44,1.36,2.01,2.8,4.02,4.3,5.98l-29.1,22.65c-4.98-6.49-9.49-13.38-13.43-20.52Zm14.97,22.49l29.1-22.65c2.99,3.75,6.21,7.36,9.58,10.73.94.94,1.91,1.88,2.9,2.81l-24.96,27.14c-5.97-5.58-11.55-11.64-16.62-18.03Zm18.46,19.73l24.96-27.14c4.39,3.96,9.08,7.63,13.94,10.91.14.09.27.18.41.27l-20.19,30.86c-6.71-4.47-13.14-9.48-19.12-14.9Zm21.21,16.28l20.19-30.86c5.17,3.31,10.61,6.27,16.19,8.79l-14.83,33.78c-7.44-3.34-14.69-7.27-21.56-11.7Zm23.84,12.71l14.83-33.77c.16.07.31.13.47.2,5.5,2.33,11.2,4.27,16.95,5.79l-9.05,35.75c-7.9-2.06-15.7-4.74-23.2-7.96Zm25.63,8.58l9.05-35.75c5.95,1.44,12.06,2.45,18.17,3l-3.02,36.75c-8.15-.72-16.28-2.07-24.2-4Zm38.81,4.65c-4.03,0-8.11-.15-12.12-.44l3.02-36.75c3.02.21,6.07.32,9.1.32s6.08-.11,9.1-.32l3.02,36.75c-4.01.29-8.09.44-12.12.44Zm14.61-.65l-3.02-36.75c6.12-.55,12.23-1.56,18.17-3l9.05,35.75c-7.91,1.93-16.05,3.28-24.2,4Zm26.62-4.61l-9.05-35.75c5.75-1.52,11.45-3.46,16.95-5.79.16-.07.31-.13.47-.2l14.83,33.77c-7.5,3.23-15.3,5.91-23.2,7.96Zm25.49-8.97l-14.83-33.78c5.58-2.52,11.02-5.47,16.19-8.79l20.19,30.86c-6.87,4.43-14.12,8.36-21.56,11.7Zm23.65-13.08l-20.19-30.86c.14-.09.27-.18.41-.27,4.87-3.29,9.55-6.96,13.94-10.91l24.96,27.14c-5.98,5.42-12.41,10.43-19.12,14.9Zm20.96-16.6l-24.96-27.14c.99-.93,1.96-1.87,2.9-2.81,3.37-3.37,6.59-6.98,9.58-10.73l29.1,22.65c-5.07,6.4-10.65,12.46-16.62,18.03Zm18.16-20.01l-29.1-22.65c1.5-1.96,2.94-3.97,4.3-5.98,2.05-3.03,3.99-6.2,5.79-9.44l32.44,17.54c-3.94,7.14-8.45,14.04-13.43,20.52Zm14.62-22.72l-32.44-17.54c1.7-3.21,3.27-6.51,4.66-9.81.98-2.31,1.89-4.68,2.74-7.06l34.89,11.95c-2.7,7.69-6.01,15.24-9.85,22.46Zm10.66-24.83l-34.89-11.95c1.91-5.74,3.4-11.68,4.45-17.65l36.37,6.09c-1.38,7.95-3.38,15.86-5.93,23.51Zm6.34-25.98l-36.37-6.09c.94-6.02,1.44-12.19,1.5-18.36h36.88c-.06,8.19-.74,16.41-2.01,24.44Z"/>
    </g>
    <g id="uuid-41f5f916-2dd3-46df-a2dd-b02621b8e124" data-name="Ôèãóðà 20 (êîïèÿ)" class="uuid-311c67f0-b78a-4e2a-a25f-488127df1b7a">
      <path class="uuid-b7dd0140-df58-4c19-97f0-4ffe1cae90aa" d="m205.63.63C92.41.63.63,92.41.63,205.63s91.78,205,205,205,205-91.78,205-205S318.84.63,205.63.63Zm202.48,202.5h-35.63c-.11-7.57-.73-15.14-1.85-22.58l35.13-5.88c1.44,9.37,2.23,18.92,2.35,28.46Zm-3.17-33.39l-35.13,5.88c-1.33-7.33-3.17-14.61-5.47-21.69l33.68-11.53c2.94,8.91,5.26,18.09,6.92,27.34ZM41.29,205.63c0-90.76,73.58-164.34,164.34-164.34s164.34,73.58,164.34,164.34-73.58,164.34-164.34,164.34S41.29,296.39,41.29,205.63Zm120.98,161.18l-8.74,34.52c-9.18-2.45-18.25-5.57-27-9.29l14.3-32.58c6.95,2.93,14.14,5.4,21.43,7.36Zm234.13-229.14l-33.68,11.53c-2.55-7.09-5.6-14.05-9.1-20.75l31.29-16.92c4.44,8.42,8.29,17.2,11.49,26.14Zm-13.88-30.53l-31.29,16.92c-3.69-6.57-7.85-12.93-12.41-18.95l28.05-21.83c5.76,7.57,11.01,15.59,15.64,23.87Zm-18.72-27.82l-28.04,21.83c-4.72-5.87-9.87-11.46-15.35-16.66l24.05-26.16c6.91,6.52,13.41,13.57,19.34,20.98Zm-23.02-24.37l-24.05,26.16c-5.56-4.96-11.47-9.57-17.64-13.75l19.47-29.75c7.77,5.24,15.23,11.06,22.22,17.34Zm-26.4-20.08l-19.47,29.75c-6.38-4.04-13.06-7.67-19.91-10.81l14.3-32.58c8.64,3.94,17.06,8.52,25.08,13.64Zm-29.65-15.66l-14.3,32.58c-6.95-2.93-14.15-5.4-21.43-7.36l8.74-34.52c9.18,2.45,18.25,5.57,27,9.29Zm-60.01-15.2c9.48.89,18.94,2.46,28.17,4.67l-8.74,34.53c-7.33-1.73-14.83-2.97-22.35-3.7l2.92-35.51Zm-19.08-.89c4.69,0,9.42.16,14.1.49l-2.92,35.51c-3.71-.25-7.46-.37-11.18-.37s-7.47.12-11.18.37l-2.92-35.51c4.68-.32,9.41-.49,14.1-.49Zm-19.08.89l2.92,35.51c-7.52.72-15.02,1.96-22.35,3.7l-8.74-34.53c9.23-2.21,18.69-3.78,28.17-4.67Zm-33.02,5.9l8.74,34.52c-7.29,1.96-14.48,4.43-21.43,7.36l-14.3-32.58c8.75-3.73,17.82-6.85,27-9.29Zm-31.57,11.31l14.3,32.58c-6.85,3.14-13.53,6.77-19.91,10.81l-19.47-29.75c8.02-5.12,16.44-9.71,25.08-13.64Zm-29.26,16.38l19.47,29.75c-6.16,4.17-12.08,8.79-17.64,13.75l-24.05-26.16c6.99-6.27,14.45-12.1,22.22-17.34Zm-25.9,20.72l24.05,26.16c-5.48,5.19-10.63,10.78-15.35,16.66l-28.05-21.83c5.93-7.42,12.43-14.46,19.34-20.98Zm-22.42,24.92l28.05,21.83c-4.55,6.03-8.72,12.39-12.4,18.96l-31.29-16.92c4.63-8.29,9.89-16.3,15.64-23.87Zm-18.03,28.27l31.29,16.92c-3.5,6.7-6.55,13.66-9.1,20.75l-33.68-11.53c3.2-8.94,7.05-17.72,11.49-26.14Zm-13.11,30.87l33.68,11.53c-2.3,7.08-4.14,14.36-5.47,21.69l-35.13-5.88c1.66-9.25,3.98-18.43,6.92-27.34Zm-7.74,32.27l35.14,5.88c-1.12,7.43-1.74,15.01-1.85,22.58H3.14c.12-9.54.91-19.09,2.35-28.46Zm-2.35,33.46h35.63c.11,7.57.73,15.14,1.85,22.58l-35.14,5.88c-1.44-9.37-2.23-18.92-2.35-28.46Zm3.17,33.39l35.13-5.88c1.33,7.33,3.17,14.61,5.47,21.69l-33.68,11.53c-2.94-8.91-5.26-18.09-6.92-27.34Zm8.54,32.07l33.68-11.53c2.55,7.09,5.6,14.05,9.1,20.75l-31.29,16.92c-4.44-8.42-8.29-17.2-11.49-26.14Zm13.88,30.53l31.29-16.92c3.69,6.57,7.85,12.93,12.4,18.95l-28.05,21.83c-5.76-7.57-11.01-15.59-15.64-23.87Zm18.72,27.82l28.04-21.83c4.72,5.87,9.88,11.46,15.35,16.66l-24.05,26.16c-6.91-6.52-13.41-13.57-19.34-20.98Zm23.02,24.37l24.05-26.16c5.56,4.96,11.47,9.57,17.64,13.75l-19.47,29.75c-7.77-5.24-15.23-11.06-22.22-17.34Zm26.4,20.08l19.47-29.75c6.38,4.04,13.06,7.67,19.91,10.81l-14.3,32.58c-8.64-3.94-17.06-8.52-25.08-13.64Zm27.18,16.63c9.89,4.32,20.2,7.89,30.83,10.61-10.63-2.73-20.93-6.29-30.83-10.61Zm62.49,14.22c-9.48-.89-18.94-2.46-28.17-4.67l8.74-34.53c7.33,1.73,14.83,2.97,22.35,3.7l-2.92,35.51Zm19.08.89c-4.69,0-9.42-.16-14.1-.49l2.92-35.51c3.71.25,7.46.37,11.18.37s7.47-.12,11.18-.37l2.92,35.51c-4.68.32-9.41.49-14.1.49Zm19.08-.89l-2.92-35.51c7.52-.72,15.03-1.96,22.35-3.7l8.74,34.53c-9.23,2.21-18.69,3.78-28.17,4.67Zm33.02-5.9l-8.74-34.52c7.29-1.96,14.48-4.43,21.43-7.36l14.3,32.58c-8.75,3.73-17.82,6.85-27,9.29Zm31.57-11.31l-14.3-32.58c6.85-3.14,13.54-6.77,19.91-10.81l19.47,29.75c-8.02,5.12-16.44,9.71-25.08,13.64Zm29.26-16.38l-19.47-29.75c6.16-4.17,12.08-8.79,17.64-13.75l24.05,26.16c-6.99,6.27-14.45,12.09-22.22,17.34Zm25.9-20.72l-24.05-26.16c5.48-5.19,10.63-10.78,15.35-16.66l28.04,21.83c-5.93,7.41-12.43,14.46-19.34,20.98Zm22.42-24.92l-28.05-21.83c4.55-6.03,8.72-12.39,12.41-18.96l31.29,16.92c-4.63,8.29-9.89,16.3-15.64,23.87Zm18.03-28.27l-31.29-16.92c3.5-6.7,6.55-13.66,9.1-20.75l33.68,11.53c-3.2,8.94-7.05,17.72-11.49,26.14Zm13.11-30.87l-33.68-11.53c2.3-7.08,4.14-14.36,5.47-21.69l35.13,5.88c-1.66,9.25-3.98,18.43-6.92,27.34Zm7.74-32.27l-35.13-5.88c1.12-7.43,1.74-15.01,1.85-22.58h35.63c-.12,9.54-.9,19.09-2.35,28.46Z"/>
    </g>
    <g id="uuid-c39ff83e-b9a8-424a-b8c0-50d89f3cca0f" data-name="Ôèãóðà 19 (êîïèÿ)" class="uuid-ab2d184c-eb47-4c30-b40b-33dcbd793a77">
      <path class="uuid-b7dd0140-df58-4c19-97f0-4ffe1cae90aa" d="m205.63.63C92.41.63.63,92.41.63,205.63s91.78,205,205,205,205-91.78,205-205S318.84.63,205.63.63Zm203.12,203.13h-36.88c-.09-7.95-.74-15.91-1.95-23.72l36.37-6.09c1.54,9.8,2.37,19.82,2.46,29.8Zm-38.78,1.88c0,90.76-73.58,164.34-164.34,164.34S41.29,296.39,41.29,205.63,114.86,41.29,205.63,41.29s164.34,73.58,164.34,164.34Zm35.7-35.38l-36.36,6.09c-1.37-7.71-3.3-15.37-5.75-22.8l34.87-11.94c3.1,9.33,5.54,18.95,7.25,28.65Zm-8.47-32.2l-34.86,11.94c-2.65-7.46-5.86-14.78-9.56-21.8l32.39-17.51c4.67,8.8,8.72,18,12.03,27.37Zm-13.82-30.67l-32.39,17.51c-3.85-6.91-8.22-13.6-13.03-19.91l29.03-22.6c6.05,7.91,11.56,16.31,16.38,25Zm-18.69-27.96l-29.03,22.6c-4.94-6.19-10.35-12.07-16.13-17.5l24.9-27.08c7.26,6.81,14.07,14.19,20.26,21.97Zm-23.02-24.51l-24.9,27.08c-5.82-5.23-12.05-10.09-18.54-14.45l20.15-30.79c8.16,5.47,15.98,11.57,23.29,18.17Zm-26.42-20.23l-20.15,30.79c-6.68-4.27-13.71-8.09-20.92-11.36l14.8-33.72c9.06,4.09,17.88,8.89,26.26,14.29Zm-29.69-15.8l-14.81,33.73c-7.29-3.11-14.85-5.7-22.51-7.73l9.04-35.73c9.62,2.53,19.12,5.8,28.28,9.74Zm-61.41-15.55c9.93.9,19.84,2.55,29.5,4.9l-9.04,35.74c-7.69-1.85-15.57-3.15-23.48-3.88l3.02-36.75Zm-18.51-.84c4.91,0,9.88.18,14.78.53l-3.02,36.75c-3.9-.27-7.85-.41-11.75-.41s-7.86.14-11.75.41l-3.02-36.75c4.9-.35,9.86-.53,14.77-.53Zm-18.51.84l3.02,36.75c-7.91.73-15.79,2.04-23.48,3.88l-9.04-35.74c9.66-2.35,19.57-3.99,29.5-4.9Zm-33.14,5.82l9.04,35.73c-7.66,2.03-15.22,4.62-22.51,7.73l-14.81-33.73c9.15-3.93,18.65-7.2,28.28-9.73Zm-31.71,11.25l14.8,33.72c-7.21,3.27-14.23,7.08-20.92,11.36l-20.15-30.79c8.38-5.39,17.21-10.19,26.26-14.29Zm-29.4,16.34l20.15,30.79c-6.49,4.36-12.72,9.22-18.54,14.45l-24.9-27.08c7.3-6.6,15.13-12.7,23.29-18.17Zm-26.05,20.71l24.9,27.08c-5.77,5.43-11.19,11.31-16.13,17.5l-29.03-22.6c6.19-7.78,13-15.17,20.26-21.97Zm-22.56,24.93l29.03,22.6c-4.81,6.31-9.18,13-13.03,19.91l-32.38-17.51c4.82-8.69,10.33-17.09,16.38-25Zm-18.17,28.3l32.39,17.51c-3.7,7.02-6.91,14.34-9.56,21.8l-34.86-11.94c3.32-9.37,7.36-18.57,12.03-27.37Zm-13.25,30.92l34.86,11.94c-2.45,7.43-4.38,15.09-5.75,22.8l-36.36-6.09c1.71-9.69,4.15-19.32,7.25-28.65Zm-7.87,32.35l36.37,6.09c-1.21,7.8-1.86,15.77-1.95,23.72H2.51c.09-9.99.92-20,2.46-29.8Zm-2.46,33.55h36.88c.09,7.95.74,15.92,1.95,23.72l-36.37,6.09c-1.54-9.8-2.37-19.81-2.46-29.8Zm3.07,33.5l36.36-6.09c1.37,7.71,3.3,15.37,5.75,22.8l-34.86,11.94c-3.1-9.33-5.54-18.95-7.25-28.65Zm8.47,32.2l34.86-11.94c2.65,7.45,5.86,14.78,9.56,21.8l-32.39,17.51c-4.67-8.8-8.72-18-12.03-27.37Zm13.82,30.67l32.38-17.51c3.85,6.91,8.23,13.6,13.03,19.91l-29.03,22.6c-6.05-7.91-11.56-16.31-16.38-25Zm18.69,27.96l29.03-22.6c4.94,6.19,10.35,12.07,16.13,17.5l-24.9,27.08c-7.26-6.81-14.07-14.19-20.26-21.97Zm23.02,24.51l24.9-27.08c5.82,5.23,12.05,10.09,18.54,14.45l-20.15,30.79c-8.16-5.47-15.98-11.57-23.29-18.17Zm26.42,20.23l20.15-30.79c6.68,4.27,13.71,8.09,20.92,11.36l-14.8,33.72c-9.06-4.09-17.88-8.89-26.26-14.29Zm29.69,15.8l14.81-33.73c7.29,3.11,14.85,5.7,22.51,7.73l-9.04,35.73c-9.62-2.53-19.12-5.8-28.27-9.74Zm61.41,15.55c-9.93-.9-19.84-2.55-29.5-4.9l9.04-35.74c7.69,1.85,15.57,3.15,23.48,3.88l-3.02,36.75Zm18.51.84c-4.91,0-9.88-.18-14.77-.53l3.02-36.75c3.9.27,7.85.41,11.75.41s7.86-.14,11.75-.41l3.02,36.75c-4.9.35-9.86.53-14.78.53Zm18.51-.84l-3.02-36.75c7.91-.73,15.79-2.04,23.48-3.88l9.04,35.74c-9.66,2.35-19.57,3.99-29.5,4.9Zm33.14-5.82l-9.04-35.73c7.66-2.03,15.22-4.62,22.51-7.73l14.81,33.73c-9.15,3.93-18.65,7.2-28.28,9.73Zm31.71-11.25l-14.8-33.72c7.21-3.27,14.23-7.08,20.92-11.36l20.15,30.79c-8.38,5.39-17.21,10.19-26.26,14.29Zm29.4-16.34l-20.15-30.79c6.49-4.36,12.72-9.22,18.54-14.45l24.9,27.08c-7.3,6.6-15.13,12.7-23.29,18.17Zm26.05-20.71l-24.9-27.08c5.77-5.43,11.19-11.31,16.13-17.5l29.03,22.6c-6.19,7.78-13,15.17-20.26,21.97Zm22.56-24.93l-29.03-22.6c4.81-6.31,9.18-13,13.03-19.91l32.39,17.51c-4.82,8.69-10.33,17.09-16.38,25Zm18.17-28.3l-32.39-17.51c3.7-7.02,6.91-14.34,9.56-21.8l34.86,11.94c-3.32,9.37-7.36,18.57-12.03,27.37Zm13.25-30.92l-34.87-11.94c2.45-7.43,4.38-15.09,5.75-22.8l36.36,6.09c-1.71,9.69-4.15,19.32-7.25,28.65Zm7.87-32.35l-36.37-6.09c1.21-7.8,1.86-15.77,1.95-23.72h36.88c-.09,9.99-.92,20-2.46,29.8Z"/>
    </g>
    <g id="uuid-d1264c0c-b9b0-49a2-ac62-97a52c69d42c" data-name="Ôèãóðà 18 (êîïèÿ)" class="uuid-b2f003ca-416f-4f34-a483-951fdd8427e6">
      <path class="uuid-b7dd0140-df58-4c19-97f0-4ffe1cae90aa" d="m205.63.63C92.41.63.63,92.41.63,205.63s91.78,205,205,205,205-91.78,205-205S318.84.63,205.63.63Zm203.75,203.75h-38.13c-.06-8.33-.75-16.69-2.04-24.86l37.6-6.29c1.64,10.24,2.51,20.71,2.57,31.15Zm-39.41,1.25c0,90.76-73.58,164.34-164.34,164.34S41.29,296.39,41.29,205.63,114.86,41.29,205.63,41.29s164.34,73.58,164.34,164.34Zm36.42-34.86l-37.6,6.29c-1.41-8.09-3.43-16.12-6.03-23.91l36.05-12.34c3.28,9.74,5.83,19.81,7.58,29.95Zm-8.39-32.32l-36.04,12.34c-2.74-7.82-6.11-15.5-10.02-22.84l33.49-18.11c4.91,9.19,9.14,18.8,12.58,28.61Zm-13.77-30.81l-33.48,18.1c-4-7.26-8.6-14.27-13.66-20.87l30.02-23.37c6.35,8.25,12.11,17.03,17.12,26.13Zm-18.66-28.1l-30.02,23.37c-5.15-6.5-10.83-12.67-16.9-18.34l25.74-28c7.61,7.09,14.73,14.81,21.17,22.97Zm-23.01-24.66l-25.74,28c-6.08-5.51-12.62-10.61-19.44-15.16l20.83-31.84c8.55,5.69,16.74,12.08,24.35,19Zm-26.44-20.37l-20.83,31.84c-6.99-4.51-14.35-8.51-21.92-11.9l15.31-34.87c9.48,4.25,18.71,9.27,27.45,14.93Zm-29.74-15.94l-15.31,34.87c-7.63-3.28-15.56-6.01-23.59-8.1l9.35-36.95c10.06,2.61,20,6.04,29.55,10.17Zm-31.98-10.79l-9.35,36.95c-8.05-1.96-16.32-3.33-24.61-4.07l3.12-38c10.38.91,20.75,2.63,30.83,5.12Zm-48.77-5.9c5.14,0,10.33.2,15.45.58l-3.12,38c-4.08-.3-8.23-.45-12.33-.45s-8.24.15-12.33.45l-3.12-38c5.12-.39,10.31-.58,15.45-.58Zm-17.94.78l3.12,38c-8.29.74-16.56,2.1-24.61,4.07l-9.35-36.95c10.08-2.49,20.45-4.21,30.83-5.12Zm-33.26,5.73l9.35,36.95c-8.03,2.09-15.97,4.82-23.59,8.1l-15.31-34.87c9.55-4.14,19.49-7.56,29.55-10.17Zm-31.84,11.18l15.31,34.87c-7.57,3.4-14.94,7.4-21.92,11.9l-20.83-31.84c8.74-5.66,17.97-10.68,27.45-14.93Zm-29.54,16.3l20.83,31.84c-6.82,4.55-13.36,9.64-19.44,15.16l-25.74-28c7.61-6.92,15.8-13.31,24.35-19Zm-26.19,20.69l25.74,28c-6.07,5.67-11.75,11.83-16.9,18.34l-30.02-23.37c6.44-8.15,13.56-15.88,21.17-22.97Zm-22.71,24.94l30.02,23.37c-5.06,6.6-9.65,13.61-13.66,20.87l-33.48-18.1c5.01-9.1,10.77-17.88,17.12-26.13Zm-18.32,28.33l33.49,18.11c-3.91,7.34-7.27,15.02-10.02,22.84l-36.04-12.34c3.43-9.81,7.66-19.42,12.58-28.61Zm-13.39,30.97l36.05,12.34c-2.6,7.78-4.62,15.82-6.03,23.91l-37.6-6.29c1.76-10.14,4.31-20.21,7.58-29.95Zm-7.99,32.42l37.6,6.29c-1.29,8.17-1.98,16.53-2.04,24.86H1.88c.06-10.44.93-20.91,2.57-31.15Zm-2.57,33.65h38.13c.06,8.33.75,16.69,2.04,24.86l-37.6,6.29c-1.64-10.24-2.51-20.71-2.57-31.15Zm2.98,33.61l37.6-6.29c1.41,8.09,3.43,16.12,6.03,23.91l-36.05,12.34c-3.28-9.74-5.83-19.81-7.58-29.96Zm8.39,32.32l36.04-12.34c2.74,7.82,6.11,15.5,10.02,22.84l-33.49,18.11c-4.91-9.19-9.14-18.8-12.58-28.61Zm13.77,30.81l33.48-18.1c4,7.26,8.6,14.27,13.66,20.87l-30.02,23.37c-6.35-8.25-12.11-17.03-17.12-26.13Zm18.66,28.1l30.02-23.37c5.15,6.5,10.83,12.67,16.9,18.34l-25.74,28c-7.61-7.09-14.73-14.81-21.17-22.97Zm23.01,24.66l25.74-28c6.08,5.51,12.62,10.61,19.44,15.16l-20.83,31.84c-8.55-5.69-16.74-12.08-24.35-19Zm26.44,20.37l20.83-31.84c6.98,4.5,14.35,8.51,21.92,11.9l-15.31,34.87c-9.48-4.25-18.71-9.27-27.45-14.93Zm29.74,15.94l15.31-34.87c7.63,3.28,15.56,6.01,23.59,8.1l-9.35,36.95c-10.06-2.61-20-6.04-29.55-10.17Zm31.98,10.79l9.35-36.95c8.05,1.96,16.32,3.33,24.61,4.07l-3.12,38c-10.38-.91-20.75-2.63-30.83-5.12Zm48.77,5.9c-5.14,0-10.33-.2-15.45-.58l3.12-38c4.08.3,8.23.45,12.33.45s8.24-.15,12.33-.45l3.12,38c-5.12.39-10.31.58-15.45.58Zm17.94-.78l-3.12-38c8.29-.74,16.56-2.1,24.61-4.07l9.35,36.95c-10.08,2.49-20.45,4.21-30.83,5.12Zm33.26-5.73l-9.35-36.95c8.04-2.09,15.96-4.82,23.59-8.1l15.31,34.87c-9.55,4.14-19.49,7.56-29.55,10.17Zm31.84-11.18l-15.31-34.87c7.57-3.4,14.93-7.4,21.92-11.9l20.83,31.84c-8.74,5.66-17.97,10.68-27.45,14.93Zm29.54-16.3l-20.83-31.84c6.82-4.55,13.36-9.64,19.44-15.16l25.74,28c-7.61,6.92-15.8,13.31-24.35,19Zm26.19-20.69l-25.74-28c6.07-5.67,11.75-11.83,16.9-18.34l30.02,23.37c-6.44,8.15-13.56,15.88-21.17,22.97Zm22.71-24.94l-30.02-23.37c5.06-6.6,9.65-13.61,13.66-20.87l33.48,18.1c-5.01,9.1-10.77,17.88-17.12,26.13Zm18.32-28.33l-33.49-18.11c3.91-7.34,7.28-15.02,10.02-22.84l36.04,12.34c-3.44,9.8-7.66,19.42-12.58,28.61Zm13.39-30.97l-36.05-12.34c2.6-7.78,4.63-15.82,6.03-23.91l37.6,6.29c-1.76,10.14-4.31,20.21-7.58,29.95Zm7.99-32.42l-37.6-6.29c1.29-8.17,1.98-16.53,2.04-24.86h38.13c-.06,10.44-.93,20.91-2.57,31.15Z"/>
    </g>
    <g id="uuid-765365b9-05b8-4adf-86d4-3d13c648400d" data-name="Ôèãóðà 16">
      <path class="uuid-afb82781-a27b-4be2-a4f7-fc4cdf90872e" d="m407.07,164.18c-2.7-13.2-6.73-26.19-11.98-38.6-5.15-12.18-11.53-23.94-18.96-34.93-7.36-10.89-15.8-21.13-25.11-30.43-9.3-9.3-19.54-17.75-30.43-25.11-10.99-7.43-22.75-13.81-34.93-18.96-12.41-5.25-25.4-9.28-38.6-11.98-13.55-2.77-27.49-4.18-41.44-4.18s-27.89,1.41-41.44,4.18c-13.2,2.7-26.19,6.73-38.6,11.98-12.18,5.15-23.94,11.53-34.93,18.96-10.89,7.36-21.13,15.8-30.43,25.11-9.3,9.3-17.75,19.54-25.11,30.43-7.43,10.99-13.8,22.75-18.96,34.93-5.25,12.41-9.28,25.4-11.98,38.6-2.77,13.55-4.18,27.49-4.18,41.44s1.41,27.89,4.18,41.44c2.7,13.2,6.73,26.19,11.98,38.6,5.15,12.18,11.53,23.94,18.96,34.93,7.36,10.89,15.8,21.13,25.11,30.43s19.54,17.75,30.43,25.11c10.99,7.43,22.74,13.81,34.93,18.96,12.41,5.25,25.4,9.28,38.6,11.98,13.55,2.77,27.49,4.18,41.44,4.18s27.89-1.41,41.44-4.18c13.2-2.7,26.19-6.73,38.6-11.98,12.18-5.15,23.94-11.53,34.93-18.96,10.89-7.36,21.13-15.8,30.43-25.11,9.3-9.3,17.75-19.54,25.11-30.43,7.43-10.99,13.81-22.75,18.96-34.93,5.25-12.41,9.28-25.4,11.98-38.6,2.77-13.55,4.18-27.49,4.18-41.44s-1.41-27.89-4.18-41.44Zm-75.83,40.82c-.03-6.59-.57-13.09-1.6-19.5l37.59-6.29c1.36,8.4,2.09,17.01,2.13,25.79h-38.12Zm-125.62,125c-68.58,0-124.38-55.79-124.38-124.38s55.79-124.38,124.38-124.38,124.38,55.79,124.38,124.38-55.79,124.38-124.38,124.38Zm123.82-145.73c-1.09-6.37-2.66-12.63-4.73-18.76l36.06-12.34c2.71,8.01,4.81,16.3,6.26,24.81l-37.59,6.29Zm-5.15-19.94c-.89-2.56-1.86-5.1-2.92-7.61-1.48-3.5-3.13-6.94-4.94-10.31l33.52-18.13c4.06,7.56,7.55,15.48,10.39,23.7l-36.06,12.35Zm-8.45-19.02c-1.86-3.4-3.88-6.72-6.05-9.93-1.48-2.19-3.04-4.34-4.66-6.44l30.06-23.4c5.27,6.81,10.02,14.04,14.17,21.64l-33.52,18.12Zm-11.48-17.36c-3.08-3.91-6.4-7.65-9.91-11.17-1.09-1.09-2.21-2.16-3.34-3.21l25.79-28.05c6.33,5.87,12.2,12.22,17.54,19.02l-30.07,23.41Zm-14.17-15.23c-4.5-4.1-9.3-7.88-14.33-11.28-.31-.21-.62-.4-.93-.61l20.87-31.9c7.14,4.72,13.88,9.98,20.18,15.73l-25.79,28.05Zm5.25-45.51c-7.26-4.73-14.92-8.9-22.92-12.45l15.81-36.01c9.99,4.44,19.56,9.66,28.63,15.57l-21.52,32.89Zm-.68,1.05l-20.87,31.89c-5.48-3.55-11.24-6.68-17.19-9.33l15.33-34.91c7.93,3.53,15.53,7.66,22.74,12.35Zm-39.21,22.06c-.34-.15-.69-.31-1.03-.45-5.7-2.41-11.53-4.38-17.47-5.91l9.35-36.95c8.44,2.17,16.62,4.98,24.48,8.4l-15.32,34.91Zm-19.71-6.66c-6.32-1.56-12.77-2.62-19.3-3.18l3.12-37.99c8.72.75,17.25,2.17,25.53,4.22l-9.35,36.95Zm-20.55-3.29c-3.2-.24-6.43-.37-9.67-.37s-6.47.12-9.67.37l-3.12-37.98c4.22-.33,8.49-.52,12.79-.52s8.57.19,12.79.52l-3.12,37.98Zm-20.59.11c-6.54.56-12.98,1.62-19.3,3.18l-9.35-36.95c8.28-2.06,16.81-3.48,25.53-4.22l3.12,37.99Zm-20.51,3.49c-5.94,1.53-11.77,3.5-17.47,5.91-.35.15-.69.3-1.03.45l-15.32-34.91c7.86-3.42,16.04-6.23,24.48-8.4l9.35,36.95Zm-19.65,6.86c-5.95,2.65-11.71,5.78-17.19,9.33l-20.87-31.89c7.21-4.69,14.81-8.83,22.74-12.35l15.33,34.91Zm-38.75-23.6l-21.52-32.89c9.07-5.92,18.64-11.14,28.63-15.57l15.81,36.01c-7.99,3.55-15.65,7.73-22.92,12.45Zm20.51,33.62c-.31.2-.62.4-.93.61-5.03,3.4-9.83,7.18-14.33,11.28l-25.79-28.05c6.29-5.75,13.04-11.01,20.18-15.73l20.87,31.9Zm-16.17,12.74c-1.13,1.05-2.25,2.12-3.34,3.21-3.52,3.52-6.83,7.25-9.91,11.17l-30.07-23.41c5.34-6.8,11.21-13.15,17.54-19.02l25.79,28.05Zm-14.02,15.37c-1.62,2.1-3.18,4.24-4.66,6.44-2.17,3.21-4.19,6.53-6.05,9.93l-33.52-18.12c4.16-7.6,8.91-14.83,14.17-21.64l30.06,23.4Zm-11.31,17.47c-1.8,3.36-3.45,6.81-4.94,10.31-1.06,2.51-2.03,5.05-2.92,7.61l-36.06-12.35c2.85-8.22,6.33-16.13,10.39-23.7l33.52,18.13Zm-8.27,19.1c-2.07,6.13-3.64,12.39-4.73,18.76l-37.59-6.29c1.45-8.51,3.55-16.8,6.26-24.81l36.06,12.35Zm-4.93,19.99c-1.03,6.4-1.57,12.91-1.6,19.5h-38.12c.03-8.78.76-17.39,2.13-25.79l37.6,6.29Zm-40.97,19.5H1.26c.03-11.06.96-21.91,2.69-32.49l38.83,6.5c-1.37,8.47-2.11,17.15-2.14,25.99Zm0,1.25c.03,8.85.77,17.53,2.14,25.99l-38.83,6.5c-1.73-10.58-2.66-21.43-2.69-32.49h39.37Zm1.25,0h38.12c.03,6.58.57,13.09,1.6,19.5l-37.6,6.29c-1.36-8.4-2.09-17.01-2.13-25.79Zm39.92,20.73c1.09,6.37,2.66,12.63,4.73,18.76l-36.06,12.34c-2.71-8.01-4.81-16.3-6.26-24.81l37.59-6.29Zm5.15,19.94c.89,2.56,1.86,5.1,2.92,7.61,1.48,3.5,3.13,6.94,4.94,10.31l-33.52,18.13c-4.06-7.56-7.55-15.48-10.39-23.7l36.06-12.35Zm8.45,19.02c1.86,3.4,3.88,6.72,6.05,9.93,1.48,2.19,3.04,4.34,4.66,6.43l-30.06,23.4c-5.27-6.81-10.02-14.04-14.17-21.64l33.52-18.12Zm11.48,17.36c3.08,3.91,6.4,7.65,9.92,11.17,1.09,1.09,2.21,2.16,3.34,3.21l-25.79,28.05c-6.33-5.87-12.2-12.22-17.54-19.02l30.06-23.41Zm14.18,15.23c4.5,4.1,9.3,7.88,14.33,11.28.31.21.62.41.93.61l-20.87,31.9c-7.14-4.72-13.88-9.98-20.18-15.73l25.79-28.05Zm-5.25,45.51c7.26,4.73,14.92,8.9,22.92,12.45l-15.81,36.01c-9.99-4.44-19.56-9.66-28.63-15.57l21.52-32.89Zm.68-1.05l20.87-31.89c5.48,3.55,11.24,6.68,17.19,9.33l-15.33,34.91c-7.93-3.53-15.53-7.66-22.74-12.35Zm39.21-22.06c.34.15.69.31,1.03.45,5.7,2.41,11.53,4.38,17.47,5.91l-9.35,36.95c-8.44-2.17-16.62-4.98-24.48-8.4l15.32-34.91Zm19.71,6.67c6.32,1.56,12.77,2.62,19.3,3.18l-3.12,37.99c-8.72-.75-17.25-2.17-25.53-4.22l9.35-36.95Zm20.55,3.29c3.2.24,6.43.37,9.67.37s6.47-.12,9.67-.37l3.12,37.98c-4.22.33-8.49.52-12.79.52s-8.57-.19-12.79-.52l3.12-37.98Zm20.59-.11c6.54-.56,12.98-1.62,19.3-3.18l9.35,36.95c-8.28,2.06-16.81,3.48-25.53,4.22l-3.12-37.99Zm20.51-3.49c5.94-1.53,11.77-3.5,17.47-5.91.35-.15.69-.3,1.03-.45l15.32,34.91c-7.86,3.42-16.04,6.23-24.48,8.4l-9.35-36.95Zm19.65-6.86c5.95-2.65,11.71-5.78,17.19-9.33l20.87,31.89c-7.21,4.69-14.81,8.83-22.74,12.35l-15.33-34.91Zm38.75,23.6l21.52,32.89c-9.07,5.92-18.64,11.13-28.63,15.57l-15.81-36.01c7.99-3.55,15.65-7.72,22.92-12.45Zm-20.51-33.62c.31-.2.62-.4.93-.61,5.03-3.4,9.83-7.18,14.33-11.28l25.79,28.05c-6.29,5.75-13.04,11.01-20.18,15.73l-20.87-31.9Zm16.17-12.74c1.13-1.05,2.25-2.12,3.34-3.21,3.52-3.52,6.83-7.25,9.91-11.17l30.07,23.41c-5.34,6.8-11.21,13.15-17.54,19.02l-25.79-28.05Zm14.02-15.37c1.62-2.1,3.18-4.24,4.66-6.44,2.17-3.21,4.19-6.53,6.05-9.93l33.52,18.12c-4.16,7.6-8.91,14.83-14.17,21.64l-30.06-23.4Zm11.31-17.47c1.8-3.37,3.46-6.81,4.94-10.31,1.06-2.51,2.03-5.05,2.92-7.61l36.06,12.35c-2.85,8.22-6.33,16.13-10.39,23.7l-33.52-18.13Zm8.27-19.1c2.07-6.13,3.64-12.39,4.73-18.76l37.59,6.29c-1.45,8.51-3.55,16.8-6.26,24.81l-36.06-12.34Zm4.93-19.99c1.03-6.4,1.57-12.91,1.6-19.5h38.12c-.03,8.78-.76,17.39-2.13,25.79l-37.59-6.29Zm40.97-19.5h39.37c-.03,11.06-.96,21.91-2.69,32.49l-38.83-6.5c1.37-8.47,2.11-17.15,2.14-25.99Zm0-1.25c-.03-8.85-.77-17.53-2.14-25.99l38.83-6.5c1.73,10.58,2.66,21.43,2.69,32.49h-39.37Zm36.48-33.72l-38.83,6.5c-1.46-8.58-3.58-16.94-6.31-25.01l37.24-12.75c3.43,10.09,6.08,20.54,7.9,31.26Zm-8.32-32.44l-37.24,12.75c-2.87-8.28-6.38-16.26-10.48-23.89l34.6-18.71c5.13,9.52,9.53,19.5,13.11,29.85Zm-13.71-30.95l-34.61,18.71c-4.19-7.66-8.98-14.95-14.29-21.82l31.02-24.15c6.65,8.57,12.63,17.68,17.87,27.26Zm-18.63-28.25l-31.02,24.15c-5.38-6.85-11.3-13.25-17.68-19.17l26.6-28.93c7.98,7.39,15.37,15.39,22.1,23.95Zm-23.01-24.8l-26.6,28.93c-6.34-5.8-13.14-11.1-20.34-15.86l21.52-32.89c8.99,5.94,17.49,12.57,25.42,19.82Zm-56.24-36.58l-15.81,36.02c-7.92-3.45-16.16-6.28-24.67-8.47l9.66-38.17c10.63,2.73,20.93,6.3,30.82,10.62Zm-32.04-10.92l-9.66,38.17c-8.34-2.07-16.94-3.5-25.73-4.26l3.23-39.25c10.99.93,21.73,2.73,32.16,5.34Zm-33.41-5.45l-3.23,39.26c-4.26-.33-8.55-.52-12.9-.52s-8.64.19-12.9.52l-3.23-39.26c5.32-.42,10.7-.63,16.12-.63s10.8.22,16.12.63Zm-33.49.11l3.23,39.25c-8.79.75-17.39,2.18-25.73,4.26l-9.66-38.17c10.43-2.61,21.17-4.41,32.16-5.34Zm-33.38,5.63l9.66,38.17c-8.51,2.18-16.75,5.02-24.67,8.47l-15.81-36.02c9.9-4.32,20.19-7.9,30.82-10.62Zm-61.64,27.39l21.52,32.89c-7.19,4.76-13.99,10.06-20.34,15.86l-26.6-28.93c7.93-7.25,16.43-13.88,25.42-19.82Zm-26.33,20.67l26.6,28.93c-6.38,5.92-12.3,12.32-17.68,19.17l-31.02-24.15c6.72-8.56,14.12-16.56,22.1-23.95Zm-22.86,24.94l31.02,24.15c-5.31,6.87-10.1,14.15-14.29,21.82l-34.61-18.71c5.24-9.58,11.22-18.68,17.87-27.26Zm-18.46,28.36l34.6,18.71c-4.09,7.62-7.61,15.6-10.48,23.89l-37.24-12.75c3.59-10.35,7.98-20.32,13.11-29.85Zm-13.53,31.02l37.24,12.75c-2.73,8.08-4.85,16.43-6.31,25.01l-38.83-6.5c1.82-10.73,4.47-21.17,7.9-31.26Zm-7.9,99.96l38.83-6.5c1.46,8.58,3.58,16.94,6.31,25.01l-37.24,12.75c-3.43-10.09-6.08-20.54-7.9-31.26Zm8.32,32.44l37.24-12.75c2.87,8.28,6.38,16.26,10.48,23.89l-34.6,18.71c-5.13-9.52-9.53-19.5-13.11-29.85Zm13.71,30.95l34.61-18.71c4.19,7.66,8.98,14.95,14.29,21.82l-31.02,24.15c-6.65-8.57-12.63-17.68-17.87-27.26Zm18.63,28.25l31.02-24.15c5.38,6.85,11.3,13.25,17.68,19.17l-26.6,28.93c-7.98-7.39-15.37-15.39-22.1-23.95Zm23.01,24.8l26.6-28.93c6.34,5.8,13.14,11.1,20.34,15.86l-21.52,32.89c-8.99-5.94-17.49-12.57-25.42-19.82Zm56.24,36.58l15.81-36.02c7.92,3.45,16.16,6.28,24.67,8.47l-9.66,38.17c-10.63-2.73-20.93-6.3-30.82-10.62Zm32.04,10.92l9.66-38.17c8.34,2.07,16.94,3.5,25.73,4.26l-3.23,39.25c-10.99-.93-21.73-2.73-32.16-5.34Zm33.41,5.45l3.23-39.26c4.26.33,8.55.52,12.9.52s8.64-.19,12.9-.52l3.23,39.26c-5.32.42-10.7.63-16.12.63s-10.8-.22-16.12-.63Zm33.49-.11l-3.23-39.25c8.79-.75,17.39-2.18,25.73-4.26l9.66,38.17c-10.43,2.61-21.17,4.41-32.16,5.34Zm33.38-5.63l-9.66-38.17c8.51-2.18,16.75-5.02,24.67-8.47l15.81,36.02c-9.9,4.32-20.19,7.9-30.82,10.62Zm61.64-27.39l-21.52-32.89c7.19-4.76,13.99-10.06,20.34-15.86l26.6,28.93c-7.92,7.25-16.43,13.88-25.42,19.82Zm26.33-20.67l-26.6-28.93c6.38-5.91,12.3-12.32,17.68-19.17l31.02,24.15c-6.72,8.56-14.12,16.56-22.1,23.95Zm22.86-24.94l-31.02-24.15c5.31-6.87,10.1-14.15,14.29-21.82l34.6,18.71c-5.24,9.58-11.22,18.68-17.87,27.26Zm18.46-28.36l-34.6-18.71c4.09-7.62,7.61-15.6,10.48-23.89l37.24,12.75c-3.59,10.35-7.98,20.32-13.11,29.85Zm13.53-31.02l-37.24-12.75c2.73-8.08,4.85-16.43,6.31-25.01l38.83,6.5c-1.82,10.73-4.47,21.17-7.9,31.26Z"/>
    </g>
    <g id="uuid-9be35830-e9a3-4fdd-8326-64ce6cb7955d" data-name="00  27  10  25  29  12  8  19  31  18  6  21  33  16  4  23  35">
      <path class="uuid-b26cec35-62ff-441c-8511-a08380c8db3c" d="m211.4,380.35l-.78.02c-2.6.08-3.86,1.42-3.78,4.02l.41,13.55c.08,2.6,1.42,3.86,4.02,3.78l.78-.02c2.6-.08,3.86-1.42,3.78-4.02l-.41-13.55c-.08-2.6-1.42-3.86-4.02-3.78Zm.52,19.16l-.66.02c-1.06.03-1.61-.48-1.64-1.54l-.42-13.79c-.03-1.06.48-1.61,1.54-1.64l.66-.02c1.06-.03,1.61.48,1.64,1.54l.42,13.79c.03,1.06-.48,1.61-1.54,1.64Zm-11.25-19.14l-.78-.02c-2.6-.08-3.94,1.18-4.01,3.78l-.4,13.55c-.08,2.6,1.18,3.94,3.78,4.01l.78.02c2.6.08,3.94-1.18,4.01-3.78l.4-13.55c.08-2.6-1.18-3.94-3.78-4.01Zm1.01,17.62c-.03,1.06-.58,1.57-1.64,1.54l-.66-.02c-1.06-.03-1.57-.58-1.54-1.64l.41-13.79c.03-1.06.58-1.57,1.64-1.54l.66.02c1.06.03,1.57.58,1.54,1.64l-.41,13.79Zm-25.2-17.48l5.88.83-.17,1.22c-.09.63-.22,1.12-.4,1.46-.18.34-.5.73-.97,1.17l-3.95,3.74c-1.21,1.12-1.91,2.4-2.12,3.82l-.38,2.67c-.36,2.57.72,4.04,3.26,4.4l.59.08c2.54.36,3.98-.75,4.35-3.32l.54-3.8-2.32-.33-.55,3.92c-.15,1.05-.73,1.5-1.74,1.36l-.48-.07c-1.01-.14-1.44-.74-1.29-1.79l.45-3.15c.1-.73.52-1.44,1.24-2.13l3.95-3.74c.72-.67,1.24-1.28,1.55-1.84.31-.56.52-1.22.63-1.97l.5-3.56-8.26-1.17-.31,2.2Zm-1.87-2.6l-2.24-.44-7.68,17.69-.42,2.12,7.21,1.41.43-2.18-4.98-.97,7.67-17.63Zm-22.26-5.54l-6.24,20.15,1.17.36.49-.35c.51-.37.98-.6,1.41-.69.43-.1.96-.08,1.59.05l.55-1.78-1.89-.59,5.1-16.48-2.18-.67Zm-6.01-2.24l-.73-.27c-2.44-.89-4.11-.11-5,2.33l-4.63,12.75c-.89,2.44-.11,4.11,2.33,5l.73.27c2.44.89,4.11.11,5-2.33l4.63-12.75c.89-2.44.11-4.11-2.33-5Zm.15,4.08l-4.71,12.97c-.36,1-1.04,1.31-2.04.95l-.62-.22c-1-.36-1.31-1.04-.95-2.04l4.71-12.97c.36-1,1.04-1.31,2.04-.95l.62.23c1,.36,1.31,1.04.95,2.04Zm-24.48-12.24l5.3,2.68-.56,1.1c-.29.57-.57.99-.85,1.25-.28.26-.71.53-1.29.79l-4.95,2.27c-1.51.67-2.58,1.65-3.23,2.94l-1.22,2.41c-1.17,2.32-.62,4.06,1.67,5.21l.54.27c2.28,1.16,4.01.57,5.19-1.75l1.73-3.43-2.09-1.06-1.79,3.53c-.48.95-1.17,1.19-2.08.73l-.43-.22c-.91-.46-1.13-1.16-.65-2.11l1.44-2.84c.33-.66.95-1.2,1.86-1.62l4.95-2.27c.9-.4,1.58-.81,2.06-1.24.48-.43.89-.99,1.23-1.66l1.63-3.21-7.44-3.77-1,1.98Zm-7.5,4.45c-1.08.3-1.94.26-2.6-.12-.79-.46-.91-1.18-.35-2.15l2.87-4.93c.53-.92,1.24-1.12,2.12-.61l.36.21c.88.51,1.06,1.23.52,2.14l-1.86,3.19,2.02,1.18,1.83-3.14c1.29-2.21.84-3.95-1.34-5.22l-.52-.3c-2.21-1.29-3.97-.81-5.28,1.44l-3.03,5.21c-.53.92-.7,1.79-.5,2.62.2.83.72,1.5,1.57,1.99.83.48,1.77.65,2.83.5l-3.36,5.65-4.82-2.81-1.12,1.92,6.74,3.92,5.64-9.7-1.74-1.01Zm-15.89-22.26l-1.32,1.79,4.78,3.52-.73.99c-.38.52-.73.88-1.05,1.09-.32.21-.79.4-1.4.57l-5.26,1.42c-1.6.41-2.82,1.2-3.67,2.36l-1.6,2.17c-1.54,2.09-1.28,3.9.78,5.42l.48.36c2.06,1.52,3.86,1.23,5.4-.86l2.28-3.09-1.88-1.39-2.35,3.19c-.63.85-1.35.98-2.17.37l-.39-.28c-.82-.6-.92-1.33-.29-2.19l1.89-2.56c.44-.6,1.14-1.02,2.1-1.28l5.26-1.42c.95-.25,1.7-.54,2.24-.89.54-.35,1.04-.83,1.49-1.44l2.13-2.9-6.72-4.94Zm-8.13,5.37c-.05-.88-.49-1.65-1.3-2.33l-.07-.06c-.68-.56-1.45-.93-2.32-1.11l3.41-4.11c.68-.82,1.41-.9,2.19-.25l.44.36c.78.65.84,1.38.16,2.2l-1.71,2.05,1.78,1.48,1.71-2.05c.84-1.02,1.22-1.95,1.12-2.81-.09-.86-.65-1.71-1.66-2.55l-.44-.36c-2-1.66-3.83-1.49-5.49.51l-8.66,10.43c-1.66,2-1.49,3.83.51,5.49l.41.35c2,1.66,3.83,1.49,5.49-.51l3.51-4.22c.66-.8.97-1.64.92-2.51Zm-3.01,1.36l-3.3,3.97c-.68.81-1.41.9-2.19.25l-.44-.36c-.78-.65-.84-1.39-.16-2.2l4.1-4.94c.65.15,1.27.47,1.86.96.82.68.86,1.45.13,2.33Zm-6.78-22.73l-1.59-1.63-15.12,14.71.86.88.59-.08c.62-.08,1.15-.05,1.57.06.42.12.88.39,1.37.8l1.33-1.3-1.38-1.42,12.36-12.03Zm-13.32,5.57l-1.55-1.75-2.96,2.63c-.79.7-1.53.67-2.2-.09l-.32-.36c-.68-.76-.62-1.5.17-2.2l2.38-2.11c.55-.49,1.33-.76,2.32-.82l5.44-.29c.98-.04,1.77-.17,2.37-.4.6-.23,1.19-.59,1.75-1.1l2.69-2.39-5.54-6.24-1.66,1.47,3.94,4.44-.92.82c-.48.42-.9.71-1.25.85-.36.14-.85.23-1.49.26l-5.44.29c-1.65.07-3.01.59-4.09,1.54l-2.02,1.79c-1.94,1.73-2.07,3.55-.37,5.46l.4.45c1.7,1.91,3.52,2.01,5.47.28l2.87-2.55Zm-7.75-31.92l-.33-.5c-1.43-2.17-3.23-2.54-5.4-1.12l-3.76,2.47c-1.22.8-1.64,1.8-1.27,2.99-1-.73-2.19-.64-3.56.26l-2.71,1.78c-2.17,1.43-2.54,3.23-1.12,5.4l.26.4c1.43,2.17,3.23,2.54,5.4,1.12l2.71-1.78c1.37-.9,1.92-1.96,1.65-3.17.94.82,2.03.82,3.25.02l3.76-2.47c2.17-1.43,2.54-3.23,1.11-5.4Zm-10.47,8.75l-3.38,2.23c-.89.58-1.62.43-2.2-.45l-.3-.45c-.58-.88-.43-1.62.45-2.2l3.38-2.23c.89-.58,1.62-.43,2.2.45l.3.45c.58.89.43,1.62-.45,2.2Zm8.21-5.37l-3.76,2.47c-.89.58-1.62.43-2.2-.46l-.33-.5c-.58-.89-.43-1.62.45-2.2l3.76-2.47c.89-.58,1.62-.43,2.2.45l.33.5c.58.89.43,1.62-.45,2.2Zm-9.69-24.13l-.98-2.06-19.06,9.02.53,1.11.59.12c.61.13,1.1.32,1.46.57.36.25.71.65,1.03,1.2l1.68-.8-.85-1.79,15.59-7.38Zm-17.98,2.37l5.07-2.11c.96-.4,1.62-1,1.98-1.8.36-.8.34-1.69-.07-2.67l-.03-.08c-.34-.81-.85-1.5-1.54-2.06l4.93-2.05c.98-.41,1.66-.14,2.06.8l.22.53c.39.94.1,1.62-.88,2.02l-2.46,1.03.89,2.13,2.46-1.03c1.22-.51,1.99-1.16,2.3-1.97.32-.8.22-1.81-.29-3.03l-.22-.53c-1-2.4-2.7-3.1-5.1-2.1l-12.52,5.22c-2.4,1-3.1,2.7-2.1,5.1l.21.5c1,2.4,2.7,3.1,5.1,2.1Zm-3.07-2.91l-.22-.53c-.39-.94-.1-1.62.88-2.02l5.93-2.47c.51.44.91,1.01,1.2,1.71.41.98.09,1.69-.97,2.13l-4.76,1.99c-.98.41-1.66.14-2.06-.8Zm-6.23-22.66c-1.02.28-1.67-.08-1.93-1.06l-.16-.58c-.27-.99.11-1.62,1.14-1.89l3.88-1.05c1.02-.28,1.67.08,1.93,1.06l.62,2.29,2.14-.58-.63-2.35c-.27-.98.11-1.62,1.14-1.89l4.23-1.14c1.02-.28,1.67.1,1.95,1.12l.16.58c.28,1.02-.1,1.67-1.12,1.95l-3.27.88.61,2.26,3.21-.87c2.47-.67,3.37-2.24,2.7-4.71l-.2-.75c-.68-2.51-2.27-3.43-4.78-2.75l-4.29,1.16c-1.41.38-2.12,1.19-2.14,2.44-.73-1-1.88-1.29-3.47-.87l-3.19.86c-2.51.68-3.43,2.27-2.75,4.78l.16.58c.68,2.51,2.27,3.43,4.78,2.75l2.78-.75-.61-2.26-2.9.78Zm-1.92-8l-.43-1.93,16.85-3.71-.49-2.23-20.6,4.54.27,1.2.55.25c.57.26,1,.56,1.3.88.3.32.54.79.74,1.4l1.82-.4Zm-3.83-22.01l17.14-1.91-.25-2.27-20.96,2.33.14,1.22.52.3c.54.32.94.66,1.2,1.01.26.35.46.84.59,1.47l1.85-.21-.22-1.97Zm-.64-5.6l3.23-.21c1.64-.11,2.64-.75,3-1.94.42,1.18,1.35,1.72,2.81,1.62l4.49-.29c2.59-.17,3.81-1.55,3.64-4.14l-.04-.6c-.17-2.59-1.55-3.81-4.14-3.64l-4.49.29c-1.46.09-2.32.75-2.58,1.97-.51-1.13-1.59-1.64-3.23-1.54l-3.23.21c-2.59.17-3.81,1.55-3.64,4.14l.03.48c.17,2.59,1.55,3.81,4.14,3.64Zm8.8-6.61l4.49-.29c1.06-.07,1.62.43,1.69,1.48l.04.6c.07,1.06-.43,1.62-1.48,1.69l-4.49.29c-1.06.07-1.62-.43-1.69-1.48l-.04-.6c-.07-1.06.43-1.62,1.48-1.69Zm-9.34.63l4.04-.26c1.06-.07,1.62.43,1.69,1.48l.03.54c.07,1.06-.43,1.62-1.48,1.69l-4.04.26c-1.06.07-1.62-.43-1.69-1.48l-.03-.54c-.07-1.06.43-1.62,1.48-1.69Zm.15-21.95l13.52,1.08c2.59.21,3.99-.99,4.2-3.58l.05-.6c.21-2.59-.99-3.99-3.58-4.2l-5.23-.42c-1.04-.08-1.9.15-2.58.7-.69.55-1.07,1.35-1.15,2.41v.15c-.08.84.08,1.68.45,2.54l-5.59-.45c-1.06-.08-1.54-.63-1.46-1.65l.04-.57c.08-1.02.65-1.48,1.71-1.4l2.9.23.18-2.3-2.9-.23c-1.3-.1-2.27.13-2.93.68-.66.56-1.04,1.49-1.14,2.78l-.05.63c-.21,2.59.99,3.99,3.58,4.2Zm7.38-3.87c.09-1.08.7-1.57,1.83-1.48l4.9.39c1.06.08,1.54.63,1.46,1.65l-.05.63c-.08,1.02-.65,1.48-1.71,1.4l-6.16-.49c-.25-.62-.35-1.32-.28-2.1Zm-3.49-25.05l3.74.88.54-2.28-3.85-.91c-1.03-.24-1.43-.86-1.2-1.85l.11-.47c.23-.99.87-1.37,1.9-1.12l3.1.73c.72.17,1.39.65,2.01,1.43l3.37,4.28c.6.78,1.16,1.35,1.69,1.71.53.36,1.17.63,1.91.8l3.5.83,1.91-8.12-2.16-.51-1.36,5.78-1.2-.28c-.62-.15-1.09-.32-1.42-.53-.32-.21-.68-.57-1.07-1.07l-3.37-4.28c-1.01-1.31-2.21-2.12-3.61-2.45l-2.63-.62c-2.53-.6-4.09.35-4.68,2.84l-.14.58c-.59,2.49.39,4.04,2.92,4.63Zm.67-12.02c.11.43.1.96-.02,1.59l1.79.51.54-1.9,16.59,4.73.62-2.19-20.28-5.78-.34,1.18.36.48c.38.5.62.97.73,1.39Zm7.44-15.65l2.67,1.08.88-2.17-2.78-1.12c-.98-.4-1.28-1.07-.9-2.01l.22-.56c.38-.95,1.06-1.22,2.05-.82l3.73,1.5c.98.4,1.28,1.07.9,2.01l-.89,2.2,2.06.83.91-2.25c.38-.95,1.06-1.22,2.05-.82l4.06,1.64c.98.4,1.28,1.09.88,2.07l-.22.56c-.4.98-1.09,1.28-2.07.88l-3.14-1.27-.88,2.17,3.09,1.25c2.37.96,4.04.25,5-2.12l.29-.72c.97-2.41.25-4.1-2.16-5.08l-4.12-1.66c-1.35-.55-2.41-.33-3.18.66.03-1.24-.72-2.17-2.24-2.78l-3.06-1.23c-2.41-.97-4.1-.25-5.08,2.16l-.22.56c-.97,2.41-.25,4.1,2.16,5.08Zm4.36-10.58l2.6,1.24,1-2.11-2.71-1.29c-.96-.45-1.22-1.14-.78-2.06l.26-.54c.44-.92,1.13-1.15,2.09-.7l3.63,1.72c.96.46,1.22,1.14.78,2.06l-1.02,2.14,2.01.95,1.04-2.2c.44-.92,1.13-1.16,2.09-.7l3.96,1.88c.96.45,1.21,1.16.75,2.12l-.26.54c-.45.96-1.16,1.21-2.12.75l-3.06-1.45-1,2.11,3.01,1.43c2.31,1.1,4.02.49,5.12-1.82l.33-.7c1.11-2.35.5-4.08-1.85-5.2l-4.01-1.9c-1.32-.63-2.39-.47-3.21.47.1-1.24-.59-2.21-2.07-2.91l-2.98-1.41c-2.35-1.12-4.08-.5-5.2,1.85l-.26.54c-1.11,2.35-.5,4.08,1.85,5.2Zm8.9-21.79c-.01.44-.16.95-.44,1.52l1.59.97,1.03-1.69,14.72,8.99,1.19-1.95-18-10.99-.64,1.05.22.56c.23.58.34,1.1.33,1.54Zm5.09-3.99l11.23,7.6c2.15,1.46,3.96,1.11,5.42-1.04l.34-.5c1.46-2.15,1.11-3.96-1.04-5.42l-4.35-2.94c-.86-.58-1.72-.81-2.59-.67-.87.14-1.6.65-2.19,1.52l-.08.12c-.47.7-.75,1.51-.85,2.43l-4.65-3.15c-.88-.59-1.03-1.31-.46-2.16l.32-.47c.57-.84,1.3-.97,2.17-.37l2.41,1.63,1.3-1.91-2.41-1.63c-1.08-.73-2.04-1.01-2.89-.85-.85.16-1.64.78-2.36,1.86l-.35.52c-1.46,2.15-1.11,3.96,1.04,5.42Zm8.33.28c.61-.89,1.38-1.02,2.32-.38l4.07,2.76c.88.59,1.03,1.31.46,2.16l-.35.52c-.57.84-1.3.97-2.17.38l-5.12-3.46c.09-.67.35-1.32.79-1.97Zm18.38-13.67l3.79-4.13,2.92,2.68,1.46-1.59-2.92-2.68.99-1.08-1.55-1.42-.99,1.08-11.01-10.1-2.01,2.19,7.72,13.59,1.59,1.46Zm2.24-5.55l-2.37,2.59-5.83-10.11,8.2,7.52Zm9.2-19.21l1.8-1.5-2.53-3.05c-.68-.82-.62-1.55.16-2.2l.37-.31c.78-.65,1.52-.57,2.19.25l2.03,2.45c.47.57.72,1.35.74,2.35l.11,5.44c0,.98.12,1.78.32,2.38.21.61.55,1.21,1.04,1.79l2.3,2.77,6.41-5.33-1.42-1.71-4.57,3.79-.79-.95c-.41-.49-.68-.92-.81-1.28-.13-.36-.2-.86-.21-1.5l-.11-5.44c-.02-1.65-.49-3.03-1.41-4.14l-1.73-2.08c-1.66-2-3.48-2.18-5.45-.55l-.46.38c-1.97,1.64-2.12,3.45-.46,5.45l2.45,2.95Zm7.84-7.66l1.88-1.39-1.78-2.41c-.63-.85-.53-1.58.29-2.19l.48-.36c.82-.6,1.55-.48,2.17.37l2.38,3.24c.63.85.53,1.58-.29,2.19l-1.91,1.41,1.32,1.79,1.96-1.44c.82-.6,1.55-.48,2.17.37l2.6,3.53c.63.85.52,1.59-.34,2.22l-.48.36c-.85.63-1.59.52-2.22-.34l-2.01-2.73-1.88,1.39,1.97,2.68c1.52,2.06,3.31,2.33,5.37.82l.63-.46c2.09-1.54,2.37-3.36.83-5.45l-2.63-3.58c-.87-1.18-1.88-1.54-3.05-1.11.67-1.04.52-2.22-.45-3.54l-1.96-2.66c-1.54-2.09-3.36-2.37-5.45-.83l-.48.36c-2.09,1.54-2.37,3.36-.83,5.45l1.71,2.32Zm16.75-11.55l2.02-1.18-1.51-2.59c-.53-.92-.36-1.63.52-2.14l.52-.3c.88-.51,1.59-.31,2.12.6l2.02,3.47c.53.92.36,1.63-.52,2.14l-2.05,1.19,1.12,1.92,2.1-1.22c.88-.51,1.59-.31,2.12.6l2.2,3.78c.53.92.34,1.64-.57,2.17l-.52.3c-.92.53-1.64.34-2.17-.57l-1.71-2.93-2.02,1.18,1.68,2.88c1.29,2.21,3.04,2.67,5.25,1.39l.67-.39c2.25-1.31,2.72-3.09,1.41-5.33l-2.23-3.84c-.73-1.26-1.71-1.74-2.91-1.43.78-.96.76-2.15-.07-3.57l-1.66-2.85c-1.31-2.25-3.09-2.72-5.33-1.41l-.52.3c-2.25,1.31-2.72,3.09-1.41,5.33l1.45,2.49Zm13.92-2.52c.34-1.07.84-1.77,1.52-2.11.82-.41,1.48-.12,1.99.88l2.57,5.09c.48.95.26,1.65-.65,2.11l-.37.19c-.91.46-1.6.22-2.08-.73l-1.66-3.29-2.09,1.06,1.64,3.24c1.16,2.29,2.86,2.86,5.11,1.72l.54-.27c2.28-1.15,2.84-2.89,1.67-5.21l-2.72-5.38c-.48-.95-1.12-1.56-1.93-1.85-.81-.29-1.65-.21-2.52.23-.86.43-1.51,1.13-1.96,2.1l-2.91-5.89,4.98-2.52-1-1.98-6.96,3.52,5.06,10.01,1.79-.91Zm22.19.73l2.13-.81-7.48-19.72-1.15.44-.17.58c-.18.6-.41,1.07-.68,1.41-.28.34-.7.65-1.28.94l.66,1.74,1.85-.7,6.12,16.13Zm2.71-5.28l5.33-1.75,1.23,3.76,2.05-.67-1.23-3.76,1.4-.46-.65-2-1.4.46-4.66-14.2-2.82.93.08,15.63.67,2.05Zm4.68-3.74l-3.34,1.09-.13-11.67,3.47,10.58Zm20.63-12.85l2.31-.38-.64-3.91c-.17-1.05.25-1.65,1.25-1.82l.47-.08c1.01-.16,1.6.28,1.77,1.32l.52,3.14c.12.73-.06,1.53-.55,2.4l-2.66,4.75c-.49.85-.8,1.59-.93,2.22-.13.63-.13,1.32-.01,2.07l.58,3.55,8.23-1.35-.36-2.19-5.86.96-.2-1.21c-.1-.63-.12-1.13-.05-1.51.07-.38.26-.84.58-1.4l2.66-4.75c.82-1.43,1.11-2.86.88-4.28l-.44-2.66c-.42-2.57-1.89-3.64-4.42-3.23l-.59.1c-2.53.41-3.58,1.9-3.16,4.47l.62,3.79Zm38.85,6.58l.06-13.56c.01-2.6-1.28-3.91-3.88-3.92h-.78c-2.6-.01-3.91,1.28-3.92,3.88l-.06,13.56c-.01,2.6,1.28,3.91,3.88,3.92h.78c2.6.01,3.9-1.28,3.92-3.88Zm-2.37.11c0,1.06-.54,1.59-1.6,1.58h-.66c-1.06,0-1.59-.54-1.58-1.6l.06-13.8c0-1.06.54-1.59,1.6-1.58h.66c1.06,0,1.59.54,1.58,1.6l-.06,13.8Zm20.34,1.48c.08-.63.21-1.12.39-1.46.18-.34.5-.73.96-1.17l3.92-3.78c1.2-1.13,1.89-2.41,2.09-3.84l.36-2.68c.34-2.58-.75-4.03-3.29-4.37l-.59-.08c-2.54-.34-3.98.78-4.32,3.36l-.51,3.81,2.32.31.52-3.93c.14-1.05.71-1.51,1.73-1.37l.48.06c1.01.13,1.45.73,1.31,1.78l-.42,3.15c-.1.73-.5,1.45-1.22,2.14l-3.92,3.78c-.71.67-1.23,1.29-1.53,1.85-.31.56-.51,1.22-.61,1.98l-.48,3.57,8.27,1.1.29-2.2-5.89-.79.16-1.22Zm15.75-15.43l-.47-.09c-2.55-.5-4.08.53-4.57,3.09l-.62,3.18c-.31,1.61.06,2.74,1.11,3.39-1.24.11-2,.87-2.28,2.31l-.86,4.42c-.5,2.55.53,4.08,3.09,4.57l.59.11c2.55.5,4.08-.53,4.57-3.08l.86-4.42c.28-1.43-.14-2.43-1.25-2.99,1.22-.21,1.99-1.12,2.3-2.73l.62-3.18c.5-2.55-.53-4.08-3.09-4.57Zm-.88,13.18l-.86,4.42c-.2,1.04-.82,1.46-1.86,1.26l-.59-.11c-1.04-.2-1.46-.82-1.26-1.86l.86-4.42c.2-1.04.82-1.46,1.86-1.26l.59.11c1.04.2,1.46.82,1.26,1.86Zm1.75-9.19l-.77,3.98c-.2,1.04-.82,1.46-1.86,1.26l-.53-.1c-1.04-.2-1.46-.82-1.26-1.86l.77-3.98c.2-1.04.82-1.46,1.86-1.26l.53.1c1.04.2,1.46.82,1.26,1.86Zm17.34,22.9l.54.18c2.46.84,4.11.03,4.95-2.44l4.37-12.84c.84-2.46.02-4.11-2.44-4.95l-.51-.17c-2.46-.84-4.11-.02-4.95,2.44l-1.77,5.2c-.33.98-.32,1.88.04,2.68.36.8,1.04,1.37,2.05,1.71l.09.03c.83.28,1.69.35,2.56.21l-1.72,5.06c-.34,1-1,1.34-1.96,1.01l-.54-.18c-.97-.33-1.28-.99-.94-2l.86-2.53-2.19-.74-.86,2.53c-.43,1.25-.44,2.26-.05,3.03.39.77,1.22,1.36,2.47,1.79Zm3.51-10.12c-1-.34-1.32-1.05-.95-2.13l1.66-4.88c.34-1,.99-1.34,1.96-1.01l.54.18c.97.33,1.28,1,.94,2l-2.07,6.08c-.66.09-1.36.01-2.08-.23Zm23.78,19.26l-5.31-2.67.55-1.1c.29-.57.57-.99.85-1.25.28-.26.71-.53,1.29-.79l4.94-2.28c1.5-.68,2.58-1.66,3.23-2.94l1.21-2.41c1.17-2.32.61-4.06-1.68-5.21l-.54-.27c-2.29-1.15-4.01-.57-5.18,1.76l-1.73,3.43,2.09,1.05,1.78-3.54c.48-.95,1.17-1.19,2.08-.73l.43.22c.91.46,1.13,1.16.65,2.11l-1.43,2.84c-.33.66-.95,1.2-1.86,1.62l-4.94,2.28c-.9.4-1.58.82-2.06,1.25-.47.43-.88.99-1.23,1.67l-1.62,3.22,7.45,3.75,1-1.98Zm4.03,5.04l.52.3c2.25,1.3,4.03.83,5.33-1.42l2.63-4.54c.52-.9.68-1.78.49-2.63-.2-.85-.76-1.55-1.67-2.08l-.13-.08c-.73-.42-1.55-.65-2.48-.68l2.81-4.85c.53-.92,1.24-1.12,2.12-.61l.49.29c.88.51,1.06,1.23.53,2.14l-1.46,2.52,2,1.16,1.46-2.52c.65-1.12.87-2.1.65-2.94s-.89-1.58-2.02-2.23l-.54-.32c-2.25-1.3-4.03-.83-5.33,1.42l-6.8,11.73c-1.3,2.25-.83,4.03,1.42,5.33Zm.57-4.04l3.1-5.35c.67.04,1.34.26,2.02.65.93.54,1.12,1.31.54,2.29l-2.47,4.26c-.53.92-1.24,1.12-2.12.61l-.54-.32c-.88-.51-1.06-1.23-.53-2.14Zm15,14.17l.63.46c2.1,1.54,3.91,1.26,5.45-.84l2.63-3.58c.86-1.18.91-2.26.15-3.24,1.2.33,2.28-.16,3.25-1.49l1.95-2.66c1.54-2.1,1.26-3.91-.84-5.45l-.48-.35c-2.1-1.54-3.91-1.26-5.45.84l-1.7,2.32,1.89,1.38,1.77-2.42c.63-.85,1.35-.98,2.17-.38l.48.35c.82.6.92,1.33.29,2.19l-2.38,3.24c-.63.85-1.35.98-2.17.38l-1.91-1.4-1.31,1.79,1.96,1.44c.82.6.92,1.33.29,2.19l-2.59,3.53c-.63.86-1.37.97-2.22.34l-.48-.35c-.86-.63-.97-1.37-.34-2.22l2.01-2.73-1.89-1.38-1.97,2.69c-1.51,2.06-1.24,3.85.82,5.37Zm8.45,6.56l.6.5c2,1.66,3.83,1.49,5.49-.51l8.66-10.43c1.66-2,1.49-3.83-.51-5.49l-.6-.5c-2-1.66-3.83-1.49-5.49.51l-8.66,10.43c-1.66,2-1.49,3.83.51,5.49Zm1.24-3.89l8.82-10.62c.68-.82,1.42-.88,2.24-.21l.51.42c.82.68.88,1.42.21,2.24l-8.82,10.62c-.68.82-1.42.88-2.24.21l-.51-.42c-.82-.68-.88-1.42-.21-2.24Zm29.04,3.03l-.59.07c-.62.07-1.15.05-1.57-.07s-.88-.39-1.36-.81l-1.34,1.29,1.37,1.43-12.44,11.95,1.58,1.64,15.21-14.61-.85-.89Zm.96,6.66l-12.83,11.53,1.52,1.7,15.69-14.09-.82-.91-.6.05c-.63.05-1.15,0-1.57-.13-.42-.14-.86-.42-1.33-.86l-1.38,1.24,1.32,1.47Zm2.17,30.54l1.25,1.91,18.02-6.89,1.8-1.19-4.04-6.14-1.85,1.22,2.79,4.24-17.97,6.86Zm28.42,14.46c.96-.45,1.66-.22,2.09.7l.21.43c.44.92.18,1.61-.78,2.06l-2.87,1.36c-.67.32-1.49.36-2.46.14l-5.3-1.24c-.95-.23-1.75-.33-2.39-.28-.64.05-1.3.24-1.99.56l-3.25,1.54,3.57,7.54,2.01-.95-2.54-5.37,1.11-.53c.58-.27,1.06-.43,1.44-.47.38-.04.88.02,1.51.17l5.3,1.24c1.6.39,3.05.28,4.35-.34l2.44-1.16c2.35-1.11,2.98-2.83,1.88-5.14l-.26-.54c-1.1-2.31-2.82-2.91-5.17-1.8l-3.47,1.65,1,2.11,3.58-1.7Zm-8.93,13.25c-2.41.97-3.13,2.66-2.16,5.07l.29.72c.97,2.41,2.66,3.13,5.08,2.16l12.58-5.07c2.41-.97,3.13-2.66,2.16-5.08l-.29-.72c-.97-2.41-2.66-3.13-5.07-2.16l-12.58,5.07Zm15.64-2.03l.25.61c.4.98.1,1.67-.88,2.07l-12.8,5.16c-.98.4-1.67.1-2.07-.88l-.25-.61c-.4-.98-.1-1.67.88-2.07l12.8-5.16c.98-.4,1.67-.1,2.07.88Zm1.77,18.95l2.88-.82c1.02-.29,1.67.06,1.95,1.04l.16.58c.28.98-.09,1.62-1.11,1.91l-3.87,1.1c-1.02.29-1.67-.06-1.95-1.04l-.65-2.28-2.14.61.66,2.34c.28.98-.09,1.62-1.11,1.91l-4.21,1.2c-1.02.29-1.67-.08-1.96-1.09l-.16-.58c-.29-1.02.08-1.67,1.09-1.96l3.26-.93-.64-2.25-3.2.91c-2.46.7-3.34,2.28-2.64,4.74l.21.75c.71,2.5,2.32,3.4,4.82,2.68l4.27-1.21c1.4-.4,2.11-1.22,2.1-2.47.74,1,1.9,1.27,3.48.82l3.17-.9c2.5-.71,3.4-2.32,2.68-4.82l-.16-.58c-.71-2.5-2.32-3.4-4.82-2.68l-2.77.79.64,2.25Zm5.19,8.04l-3.75.83.51,2.28,3.87-.86c1.04-.23,1.66.15,1.88,1.15l.1.47c.22,1-.19,1.61-1.22,1.84l-3.11.69c-.72.16-1.53.02-2.43-.41l-4.89-2.39c-.88-.44-1.63-.71-2.27-.8-.64-.09-1.33-.06-2.07.1l-3.52.78,1.8,8.14,2.17-.48-1.28-5.8,1.2-.27c.62-.14,1.13-.18,1.51-.13.38.05.86.21,1.43.5l4.89,2.39c1.47.74,2.91.95,4.32.64l2.64-.58c2.54-.56,3.53-2.09,2.98-4.59l-.13-.59c-.55-2.5-2.1-3.47-4.64-2.91Zm4.23,24.34l-17.15,1.84.24,2.27,20.97-2.25-.13-1.22-.52-.31c-.54-.32-.94-.66-1.2-1.02-.26-.36-.45-.85-.58-1.48l-1.85.2.21,1.97Zm2.37,9.74l-19.01-2.89.15,2.28,19.07,2.89,2.16-.14-.49-7.33-2.21.15.33,5.06Zm-9.11,24.94c.73.84,1.07,1.64,1.01,2.4-.08.92-.67,1.33-1.79,1.24l-5.68-.46c-1.06-.09-1.54-.64-1.46-1.65l.03-.42c.08-1.02.65-1.48,1.71-1.4l3.68.3.19-2.33-3.62-.29c-2.55-.21-3.93.94-4.13,3.46l-.05.6c-.21,2.55.98,3.93,3.58,4.14l6.01.49c1.06.09,1.92-.14,2.58-.68.66-.54,1.04-1.3,1.12-2.27.08-.96-.18-1.88-.77-2.77l6.54.59-.45,5.56,2.21.18.63-7.77-11.18-.91-.16,2Zm4.4,23.95l-3.75-.82-.5,2.29,3.87.85c1.04.23,1.44.84,1.23,1.83l-.1.47c-.22,1-.84,1.38-1.88,1.15l-3.11-.68c-.72-.16-1.4-.62-2.03-1.4l-3.44-4.22c-.61-.77-1.18-1.33-1.72-1.68-.54-.35-1.18-.61-1.92-.77l-3.52-.77-1.78,8.15,2.17.47,1.27-5.8,1.2.26c.62.14,1.1.31,1.42.51.32.2.69.55,1.09,1.05l3.44,4.22c1.03,1.29,2.25,2.09,3.65,2.4l2.64.58c2.54.56,4.08-.42,4.63-2.92l.13-.59c.55-2.5-.45-4.03-2.99-4.58Zm-2.46,10.87l-3.7-1.04-.63,2.25,3.81,1.07c1.02.29,1.39.92,1.12,1.9l-.13.46c-.28.98-.92,1.33-1.94,1.04l-3.06-.86c-.71-.2-1.36-.7-1.94-1.51l-3.19-4.41c-.56-.8-1.1-1.4-1.62-1.78-.52-.38-1.14-.68-1.87-.88l-3.47-.97-2.25,8.03,2.14.6,1.61-5.72,1.18.33c.62.17,1.08.37,1.39.59.31.22.65.59,1.03,1.11l3.19,4.41c.95,1.35,2.12,2.21,3.51,2.6l2.6.73c2.5.7,4.1-.18,4.79-2.64l.16-.58c.69-2.46-.21-4.05-2.72-4.75Zm-6.22,19.7l-2.67-1.08-.87,2.17,2.78,1.12c.98.4,1.28,1.07.9,2.01l-.22.56c-.38.95-1.06,1.22-2.05.83l-3.73-1.5c-.98-.4-1.28-1.07-.9-2.01l.88-2.2-2.06-.83-.91,2.25c-.38.95-1.06,1.22-2.05.83l-4.06-1.64c-.98-.4-1.28-1.09-.88-2.07l.22-.56c.4-.98,1.09-1.28,2.07-.88l3.14,1.27.87-2.17-3.09-1.24c-2.37-.96-4.04-.25-5,2.13l-.29.72c-.97,2.41-.25,4.1,2.16,5.07l4.12,1.66c1.35.54,2.41.32,3.18-.66-.03,1.24.72,2.17,2.24,2.78l3.06,1.23c2.41.97,4.1.25,5.08-2.16l.22-.56c.97-2.41.25-4.1-2.16-5.08Zm-16.23,4.52l-2.4,5.07-3.58-1.69-.92,1.95,3.58,1.69-.63,1.33,1.9.9.63-1.33,13.51,6.38,1.27-2.69-11.4-10.7-1.95-.92Zm-.5,5.97l1.5-3.17,8.56,7.93-10.06-4.75Zm3.39,22.03c.01-.44.16-.95.44-1.53l-1.59-.97-1.03,1.69-14.72-9-1.19,1.95,17.99,11,.64-1.05-.22-.56c-.23-.58-.34-1.1-.33-1.54Zm-12.5,1.54c.22,1.09.12,1.96-.3,2.59-.51.76-1.24.83-2.16.2l-4.72-3.2c-.88-.59-1.03-1.31-.46-2.16l.24-.35c.57-.84,1.3-.97,2.17-.38l3.06,2.07,1.31-1.94-3.01-2.04c-2.12-1.43-3.89-1.11-5.3.98l-.34.5c-1.43,2.12-1.08,3.91,1.08,5.37l4.99,3.38c.88.59,1.74.82,2.58.68.84-.14,1.54-.62,2.09-1.43.54-.79.77-1.73.69-2.79l5.41,3.73-3.13,4.62,1.84,1.24,4.37-6.46-9.29-6.29-1.13,1.66Zm-11.74,23.03l-1.58,1.72,2.21,2.03c.78.72.83,1.45.14,2.2l-.41.44c-.69.75-1.42.77-2.21.05l-2.96-2.72c-.78-.72-.83-1.45-.14-2.2l1.6-1.75-1.63-1.5-1.64,1.79c-.69.75-1.42.77-2.21.05l-3.23-2.96c-.78-.72-.81-1.47-.1-2.25l.41-.44c.72-.78,1.46-.81,2.25-.1l2.5,2.29,1.58-1.72-2.45-2.25c-1.89-1.73-3.69-1.65-5.42.23l-.53.57c-1.76,1.92-1.68,3.75.24,5.51l3.27,3c1.08.99,2.14,1.15,3.21.5-.46,1.15-.09,2.28,1.12,3.39l2.43,2.23c1.91,1.76,3.75,1.68,5.51-.24l.41-.44c1.76-1.92,1.68-3.75-.24-5.51l-2.12-1.95Zm-19.71,18.16l-1.81,1.49,2.51,3.06c.67.82.62,1.55-.17,2.2l-.37.3c-.79.65-1.52.56-2.19-.26l-2.02-2.46c-.47-.57-.71-1.36-.73-2.35l-.09-5.44c0-.98-.11-1.78-.31-2.39-.2-.61-.55-1.21-1.03-1.79l-2.29-2.78-6.44,5.3,1.41,1.71,4.59-3.77.78.95c.41.49.67.92.8,1.28.13.36.2.86.2,1.5l.09,5.44c0,1.65.47,3.03,1.39,4.14l1.71,2.09c1.65,2.01,3.47,2.2,5.44.57l.46-.38c1.98-1.62,2.14-3.44.49-5.45l-2.44-2.97Zm-12.73-1.81l-4.51,3.34-2.36-3.18-1.74,1.29,2.36,3.18-1.18.87,1.25,1.69,1.18-.87,8.89,12,2.39-1.77-5-14.81-1.29-1.74Zm-3.26,5.03l2.82-2.09,3.81,11.03-6.63-8.94Zm-7.73,15.28l-2.02,1.18,1.51,2.59c.53.92.36,1.63-.52,2.14l-.52.3c-.88.51-1.59.31-2.12-.6l-2.03-3.47c-.53-.92-.36-1.63.52-2.14l2.05-1.19-1.12-1.92-2.1,1.22c-.88.51-1.59.31-2.12-.6l-2.21-3.78c-.53-.92-.34-1.64.57-2.17l.52-.3c.91-.53,1.64-.34,2.17.57l1.71,2.93,2.02-1.18-1.68-2.88c-1.29-2.21-3.04-2.67-5.25-1.38l-.67.39c-2.25,1.31-2.71,3.09-1.4,5.33l2.24,3.83c.74,1.26,1.71,1.74,2.91,1.43-.78.96-.76,2.15.07,3.57l1.66,2.85c1.31,2.25,3.09,2.71,5.33,1.4l.52-.3c2.25-1.31,2.71-3.09,1.4-5.33l-1.45-2.49Zm-14.76-3.84c-1.17-2.32-2.92-2.89-5.24-1.72l-.54.27c-2.32,1.17-2.89,2.92-1.72,5.24l2.37,4.68c.47.93,1.12,1.54,1.94,1.84.82.3,1.71.21,2.66-.27l.13-.07c.75-.38,1.39-.95,1.92-1.71l2.53,5.01c.48.95.26,1.65-.65,2.11l-.51.26c-.91.46-1.6.22-2.08-.73l-1.31-2.6-2.06,1.04,1.31,2.6c.59,1.16,1.29,1.87,2.11,2.14.82.27,1.81.11,2.97-.48l.56-.28c2.32-1.17,2.89-2.92,1.72-5.24l-6.12-12.1Zm-1.02,7.81c-.96.49-1.7.22-2.22-.79l-2.22-4.39c-.48-.95-.26-1.65.65-2.11l.56-.29c.91-.46,1.6-.22,2.08.73l2.79,5.51c-.4.54-.95.98-1.64,1.34Zm-15.02,14.28l-6.06-16.15-2.13.8,7.41,19.75,1.15-.43.17-.58c.18-.6.41-1.07.69-1.41.28-.34.71-.65,1.28-.93l-.65-1.74-1.85.7Zm-5.96-.81l-2.23.72.92,2.86c.33,1.01,0,1.67-.97,1.98l-.57.18c-.97.31-1.62-.04-1.94-1.04l-1.23-3.83c-.33-1.01,0-1.67.97-1.98l2.26-.73-.68-2.11-2.31.75c-.97.31-1.62-.04-1.94-1.04l-1.34-4.17c-.33-1.01.02-1.68,1.03-2l.57-.18c1.01-.33,1.68.02,2,1.03l1.04,3.23,2.23-.72-1.02-3.17c-.79-2.44-2.4-3.26-4.83-2.48l-.74.24c-2.47.8-3.31,2.43-2.51,4.91l1.36,4.23c.45,1.39,1.29,2.06,2.54,2.02-.97.77-1.2,1.94-.7,3.5l1.01,3.14c.8,2.47,2.43,3.31,4.91,2.52l.57-.18c2.47-.8,3.31-2.43,2.51-4.91l-.88-2.74Zm-29.12,10.43l-2.89-17.01-2.25.38,3.53,20.79,1.21-.21.27-.53c.29-.56.61-.98.94-1.26.34-.28.82-.5,1.44-.67l-.31-1.83-1.95.33Z"/>
    </g>
  </g>
  <g id="uuid-e58a2311-a1d3-432a-b308-e4dd5d156d41" data-name="Ãðóïïà 1">
    <g id="uuid-1e6909a5-7d58-48cc-b1b8-d51feca80a36" data-name="Ôèãóðà 12 (êîïèÿ)" class="uuid-010da537-8da2-4b63-94f8-9865c9e8ee16">
      <circle class="uuid-14853dc4-03fe-47ab-a5e6-bb28f9af44ab" cx="205.62" cy="357.29" r="7.77"/>
    </g>
    <g id="uuid-7441f8cb-b1cf-43e5-bb1c-0b6a9a255a00" data-name="Ôèãóðà 12 (êîïèÿ) 6" class="uuid-d31698cc-aab4-46a9-a537-fbf4596823ba">
      <path class="uuid-14853dc4-03fe-47ab-a5e6-bb28f9af44ab" d="m205.63,349.9c-4.09,0-7.4,3.31-7.4,7.4s3.31,7.4,7.4,7.4,7.4-3.31,7.4-7.4-3.31-7.4-7.4-7.4Z"/>
    </g>
    <g id="uuid-9af6ee88-6bb3-416b-bd54-7823cbab571f" data-name="Ôèãóðà 12 (êîïèÿ) 5" class="uuid-f8afd85d-ebc3-4415-a1ea-ad1636dad25e">
      <path class="uuid-14853dc4-03fe-47ab-a5e6-bb28f9af44ab" d="m205.63,350.25c-3.89,0-7.04,3.15-7.04,7.04s3.15,7.04,7.04,7.04,7.04-3.15,7.04-7.04-3.15-7.04-7.04-7.04Z"/>
    </g>
    <g id="uuid-7a0e2b73-f198-49fe-bac1-90e835911850" data-name="Ôèãóðà 12 (êîïèÿ) 4" class="uuid-ab2d184c-eb47-4c30-b40b-33dcbd793a77">
      <circle class="uuid-14853dc4-03fe-47ab-a5e6-bb28f9af44ab" cx="205.63" cy="357.29" r="6.71"/>
    </g>
    <g id="uuid-24b9929b-1948-4028-8d5e-f4aeffe8ee41" data-name="Ôèãóðà 12 (êîïèÿ) 3" class="uuid-b2f003ca-416f-4f34-a483-951fdd8427e6">
      <path class="uuid-14853dc4-03fe-47ab-a5e6-bb28f9af44ab" d="m205.63,350.9c-3.53,0-6.39,2.86-6.39,6.39s2.86,6.39,6.39,6.39,6.39-2.86,6.39-6.39-2.86-6.39-6.39-6.39Z"/>
    </g>
    <g id="uuid-7b134d43-7cc7-4cac-9313-9c08d73a63a6" data-name="Ôèãóðà 12 (êîïèÿ) 2">
      <circle class="uuid-2eb115b0-5425-45cb-b028-7f836e3bdf51" cx="205.63" cy="355.63" r="7.5"/>
    </g>
    <g id="uuid-c0524ecc-cdbf-45c6-b0c1-518cd99d3fd7" data-name="Ôèãóðà 13">
      <path class="uuid-214cce5b-e1e2-4824-b7e1-1e9f9a86517f" d="m210.49,350.76c-2.69-2.68-7.04-2.68-9.72,0-1.59,1.59-1.53,6.19,1,8.72,2.57,2.57,6.86,2.86,8.72,1,2.69-2.68,2.69-7.04,0-9.72Z"/>
    </g>
    <g id="uuid-b600e762-141c-4bcd-a009-6513b7c7d47f" data-name="Ôèãóðà 14">
      <path class="uuid-4d1fe6f7-75e0-4048-ad56-bbeaf1221735" d="m210.43,351.2c-.83-.92-2-1.21-2.62-.65-.62.56-.45,1.75.37,2.67.83.92,2,1.21,2.62.65.62-.56.45-1.75-.37-2.67Z"/>
    </g>
  </g>
</svg>